<svg version="1.0" viewBox="0 0 777 159" xmlns="http://www.w3.org/2000/svg">
  <defs>
    <radialGradient gradientUnits="userSpaceOnUse" cx="389.153" cy="76.05" r="381.047" id="gradient-1">
      <stop offset="0" style="stop-color: rgb(85.49% 6.6667% 12.157%)"></stop>
      <stop offset="1" style="stop-color: rgb(55.737% 0% 2.4385%)"></stop>
    </radialGradient>
    <radialGradient gradientUnits="userSpaceOnUse" cx="137.174" cy="33.336" r="381.047" id="gradient-2" gradientTransform="matrix(0.108459, 0.182391, -0.859513, 0.511113, 112.342615, 162.507907)">
      <stop offset="0" style="stop-color: rgb(24, 67, 115);"></stop>
      <stop offset="1" style="stop-color: rgb(22, 100, 150);"></stop>
    </radialGradient>
  </defs>
  <path d="M 638.2 55.9 C 638.5 100.8 638.5 101.9 640.6 104.7 C 645.1 110.6 647.9 111.5 665.8 111.8 L 682 112.2 L 682 101 L 667.5 101 C 647.3 101 648.9 103.5 649.2 71.7 L 649.5 46.5 L 665.8 46.2 L 682 46 L 682 35 L 665.8 34.8 L 649.5 34.5 L 649.2 22.2 L 648.9 10 L 637.9 10 L 638.2 55.9 M 141 36.8 C 139.1 37.7 136.5 40 135.3 41.9 C 133 45.2 133 45.9 133 73 C 133 100.1 133.1 100.8 135.3 104 C 136.5 105.8 138.8 108.3 140.3 109.4 C 143 111.4 144.5 111.5 171.1 111.8 L 199 112.1 L 199 119.8 C 199 124.5 198.5 128.1 197.8 128.8 C 196.9 129.7 189.8 130 171.8 130 L 147 130 L 147 142 L 172.5 142 C 201.5 142 203.6 141.5 208.1 134.3 C 210.5 130.5 210.5 130.4 210.8 92.2 C 211.1 51.5 210.7 45.6 206.7 40.9 C 202 35.3 200.5 35 171.3 35 C 147.8 35 144.1 35.2 141 36.8 M 197.4 47.6 C 198.8 48.9 199 52.7 199 73.4 C 199 90.9 198.7 97.9 197.8 98.8 C 196.1 100.5 146.9 100.5 145.2 98.8 C 144.3 97.9 144 90.9 144 73.4 C 144 49.4 144 49.1 146.2 47.6 C 149.6 45.2 195.1 45.2 197.4 47.6 M 228 37.2 C 226.2 38.5 223.7 40.8 222.6 42.3 C 220.6 45 220.5 46.3 220.5 73.3 C 220.5 101 220.5 101.6 222.8 104.7 C 224 106.4 227 108.8 229.3 109.9 C 233.4 111.9 235.3 112 260.3 112 L 287 112 L 287 119.4 C 287 124.8 286.6 127.3 285.4 128.4 C 284.1 129.8 280.3 130 258.9 130 L 234 130 L 234 142.1 L 260.9 141.8 C 286.3 141.5 288 141.4 290.6 139.4 C 292.1 138.3 294.3 136.1 295.4 134.6 C 297.4 131.9 297.5 130.7 297.5 88.5 C 297.5 46.1 297.5 45.1 295.4 42.3 C 294.3 40.8 291.8 38.5 290 37.2 C 286.8 35.1 286.1 35 259 35 C 231.9 35 231.2 35.1 228 37.2 M 284.8 47.6 C 287 49.1 287 49.5 287 73 C 287 93.4 286.8 97.1 285.4 98.4 C 284.1 99.8 280.2 100 258.5 100 C 234.4 100 233 99.9 232 98.1 C 231.4 96.9 231 87.1 231 73.1 C 231 51.3 231.1 49.9 233 48 C 234.9 46.1 236.3 46 258.8 46 C 278.7 46 282.9 46.3 284.8 47.6 M 315.6 37.3 C 313.4 38.5 310.7 41.1 309.6 43 C 307.6 46.3 307.5 48 307.5 79 L 307.5 111.5 L 313.3 111.8 L 319 112.1 L 319 80.7 C 319 51.6 319.1 49.2 320.8 47.7 C 322.4 46.2 325.6 46 344.8 46 L 367 46 L 367 35 L 343.3 35 C 320.5 35 319.3 35.1 315.6 37.3 M 384.4 36.4 C 382.7 37.2 380 39.5 378.4 41.6 L 375.5 45.3 L 375.2 70.4 C 375 84.2 375.2 97 375.5 98.8 C 376.3 103.3 382.3 109.7 386.8 111 C 389 111.6 403.9 112 422.3 112 L 454 112 L 454 101 L 422.7 101 C 396 101 391.1 100.8 389.2 99.4 C 387.2 98 387 97.1 387 88.4 L 387 79 L 454.2 79 L 453.8 62 L 453.5 45.1 L 450 41.4 C 444 35.2 443 35 413.8 35 C 393.9 35.1 386.7 35.4 384.4 36.4 M 440.5 47.6 C 441.8 48.9 442 51 441.8 58.4 L 441.5 67.5 L 414.3 67.8 L 387 68 L 387 58.6 C 387 51.3 387.4 48.8 388.6 47.6 C 389.9 46.2 393.7 46 414.5 46 C 435.6 46 439.1 46.2 440.5 47.6 M 470.9 37.2 C 468.9 38.3 466.2 41 465.1 43.1 C 463 46.8 462.9 47.9 463.2 74.2 C 463.5 101.2 463.5 101.5 465.9 104.9 C 470.6 111.5 473.2 112 503.3 112 L 530 112 L 530 118.8 C 530 130.5 531.2 130 501.9 130 L 477 130 L 477 142.1 L 503.9 141.8 C 529.3 141.5 531 141.4 533.6 139.4 C 535.1 138.3 537.3 136.1 538.4 134.6 C 540.4 131.9 540.5 130.7 540.5 88.6 L 540.5 45.3 L 537.6 41.6 C 532.8 35.3 531.3 35 501.3 35 C 475.9 35 474.3 35.2 470.9 37.2 M 527.8 47.6 C 530 49.1 530 49.5 530 72.3 C 530 91.7 529.7 95.9 528.4 97.8 C 526.9 100 526.6 100 501.6 100 C 483.3 100 476.1 99.7 475.2 98.8 C 474.3 97.9 474 90.9 474 73.4 C 474 49.4 474 49.1 476.2 47.6 C 479.5 45.2 524.5 45.2 527.8 47.6 M 550 40.5 L 550 46 L 581.9 46 C 609.9 46 614.1 46.2 615.5 47.6 C 616.8 48.9 617 51 616.8 58.4 L 616.5 67.5 L 583.3 67.8 L 550 68 L 550 82.9 C 550 91.2 550.5 99.1 551.1 100.7 C 552.6 104.9 557.9 109.9 562 111 C 563.9 111.6 579.5 112 597.3 112 L 629.1 112 L 628.8 78.7 L 628.5 45.4 L 626 42.4 C 620.1 35.2 622.2 35.5 584.3 35.2 L 550 34.9 L 550 40.5 M 616.8 89.7 L 616.5 100.5 L 591.6 100.8 C 560.4 101.1 562 101.8 562 88.5 L 562 79 L 617.1 79 L 616.8 89.7 M 699.6 37.3 C 697.4 38.5 694.7 41.1 693.6 43 C 691.6 46.3 691.5 48.1 691.5 73.6 L 691.5 100.7 L 694.4 104.4 C 699.9 111.7 701.3 112 737.8 112 L 770 112 L 770 101 L 738.7 101 C 712 101 707.1 100.8 705.2 99.4 C 703.2 98 703 97.1 703 88.4 L 703 79 L 770.2 79 L 769.8 62.1 L 769.5 45.2 L 766.4 41.3 C 764.7 39.2 761.8 37 759.9 36.3 C 757.6 35.5 747.9 35.1 730 35.1 C 704.4 35 703.4 35.1 699.6 37.3 M 756.1 47 C 757.8 48 758 49.2 758 58 L 758 68 L 703 68 L 703 58.8 C 703 45.2 701.3 46 730.2 46 C 744.8 46 754.9 46.4 756.1 47" style="paint-order: stroke; fill-rule: evenodd; fill: rgb(255, 255, 255);"></path>
  <g transform="matrix(1, 0, 0, 1, -49.235283, -153.265427)">
    <path d="M 113.756 192.416 C 110.556 193.716 107.356 198.316 107.356 201.716 C 107.356 203.516 109.956 209.716 113.756 216.816 C 140.556 267.816 152.856 290.216 154.956 292.116 C 158.656 295.416 165.556 295.316 168.956 291.916 C 174.156 286.716 173.256 284.416 148.356 237.516 C 130.556 203.916 125.256 194.716 122.856 193.216 C 119.656 191.316 117.056 191.016 113.756 192.416 M 94.856 226.216 C 92.556 227.716 88.756 233.916 78.356 253.416 C 63.556 281.216 62.756 283.016 63.756 286.916 C 65.556 293.916 75.356 297.016 80.756 292.116 C 82.956 290.216 96.856 265.316 107.356 244.416 C 112.156 234.816 111.356 229.116 104.856 225.916 C 100.556 223.916 98.556 224.016 94.856 226.216 M 111.456 260.016 C 107.956 262.516 106.256 267.416 107.456 271.716 C 108.756 276.716 112.556 279.416 118.056 279.416 C 126.156 279.416 130.756 271.716 127.256 264.116 C 124.956 258.916 116.256 256.716 111.456 260.016" style="paint-order: stroke; fill-rule: evenodd; fill: url(#gradient-2);"></path>
    <path d="M 628.293 148.503 L 627.793 148.506 L 627.49 102.103 L 639.481 102.103 L 639.793 114.791 L 640.081 126.612 L 655.901 126.903 L 672.593 127.109 L 672.593 139.097 L 655.901 139.303 L 640.087 139.594 L 639.793 164.308 C 639.642 180.222 639.169 187.387 641.18 190.614 C 642.146 192.164 643.603 192.744 646.218 192.999 C 648.869 193.258 652.532 193.103 657.593 193.103 L 672.593 193.103 L 672.593 205.316 L 655.882 204.903 C 637.912 204.591 634.915 203.589 630.293 197.603 C 629.223 196.172 628.624 195.06 628.319 188.715 C 628.168 185.589 628.074 181.146 627.999 174.682 C 627.962 171.451 627.929 167.713 627.896 163.38 C 627.88 161.214 627.863 158.898 627.846 156.423 C 627.838 155.185 627.829 153.908 627.82 152.589 C 627.816 151.929 627.811 151.259 627.807 150.579 C 627.805 150.239 627.802 149.896 627.8 149.551 C 627.798 149.205 627.793 148.506 627.793 148.506 C 627.793 148.506 628.043 148.505 628.293 148.503 Z M 628.793 148.5 C 628.793 148.508 628.798 149.201 628.8 149.544 C 628.802 149.889 628.805 150.232 628.807 150.572 C 628.811 151.253 628.816 151.923 628.82 152.582 C 628.829 153.901 628.838 155.179 628.846 156.416 C 628.863 158.891 628.88 161.206 628.896 163.372 C 628.929 167.705 628.962 171.441 628.999 174.671 C 629.074 181.129 629.168 185.554 629.317 188.666 C 629.612 194.796 630.063 195.634 631.093 197.003 C 635.471 202.817 638.074 203.615 655.901 203.903 L 671.593 204.29 L 671.593 194.103 L 657.593 194.103 C 652.554 194.103 648.842 194.26 646.121 193.994 C 643.365 193.725 641.453 192.942 640.331 191.142 C 638.167 187.669 638.644 180.184 638.793 164.298 L 639.093 139.097 L 639.099 138.612 L 655.884 138.303 L 671.593 138.109 L 671.593 128.097 L 655.887 127.903 L 639.584 127.603 L 639.105 127.594 L 638.793 114.815 L 638.505 103.103 L 628.496 103.103 L 628.793 148.5 Z M 48.603 117.863 L 48.298 117.143 C 51.724 115.725 54.559 116.046 57.858 117.979 C 60.342 119.566 65.73 128.861 83.535 162.469 C 95.985 185.92 102.45 198.248 105.148 205.363 C 106.508 208.95 106.934 211.321 106.664 213.08 C 106.387 214.886 105.364 216.139 104.047 217.457 C 102.268 219.235 99.502 220.177 96.813 220.215 C 94.125 220.254 91.302 219.377 89.358 217.674 C 87.206 215.709 74.854 193.243 48.052 142.239 C 44.242 135.118 41.593 128.8 41.593 126.903 C 41.593 125.11 42.45 122.965 43.682 121.181 C 44.298 120.29 45.037 119.441 45.811 118.753 C 46.587 118.062 48.161 117.229 48.161 117.229 C 48.18 117.214 48.442 117.619 48.603 117.863 Z M 48.688 118.062 C 48.58 118.11 48.281 118.245 48.129 118.326 C 47.94 118.426 47.76 118.533 47.572 118.655 C 47.195 118.901 46.837 119.178 46.475 119.5 C 45.749 120.146 45.088 120.904 44.504 121.75 C 43.336 123.441 42.593 125.296 42.593 126.903 C 42.593 128.606 45.144 134.688 48.934 141.767 C 75.732 192.763 87.98 215.097 90.028 216.932 C 91.784 218.529 94.261 219.252 96.798 219.216 C 99.334 219.179 101.718 218.371 103.339 216.749 C 104.622 215.467 105.437 214.482 105.675 212.929 C 105.921 211.329 105.54 209.219 104.213 205.718 C 101.536 198.658 95.101 186.386 82.651 162.937 C 64.856 129.345 59.654 120.258 57.335 118.831 C 54.235 116.966 51.862 116.682 48.688 118.063 L 48.688 118.062 Z M 48.728 118.044 C 48.728 118.044 48.728 118.044 48.728 118.044 C 48.728 118.044 48.728 118.044 48.728 118.044 Z M 130.692 129.104 C 130.693 129.104 130.693 129.103 130.693 129.103 C 130.693 129.104 130.692 129.104 130.692 129.104 Z M 130.624 129.248 L 130.618 129.246 C 133.207 121.397 135.113 116.627 136.838 114.101 C 137.722 112.806 138.659 112.007 139.575 111.736 C 140.513 111.458 141.56 111.705 142.54 112.27 C 146.309 114.442 151.278 121.843 161.623 127.159 C 174.478 133.838 181.993 133.885 186.968 132.991 C 189.434 132.549 191.287 131.851 192.85 131.611 C 194.447 131.366 195.857 131.697 197.176 133.181 C 201.233 138.026 201.692 144.088 201.393 184.807 C 201.093 223.005 201.054 223.236 198.616 227.169 C 193.963 234.479 191.651 235.096 162.593 235.103 L 136.593 235.103 L 136.593 222.103 L 161.893 222.103 C 179.882 222.103 186.759 221.83 187.539 221.049 C 188.133 220.456 188.595 217.069 188.593 212.403 L 188.593 205.198 L 161.187 204.903 C 134.574 204.602 132.928 204.453 130.095 202.405 C 128.559 201.272 126.201 198.711 124.977 196.881 C 122.736 193.575 122.593 192.738 122.593 165.603 C 122.593 138.503 122.625 137.679 124.97 134.236 C 125.651 133.207 126.985 132.356 128.171 131.572 C 128.764 131.181 129.312 130.805 129.76 130.403 C 129.981 130.204 130.156 130.022 130.308 129.818 C 130.407 129.685 130.543 129.416 130.624 129.248 Z M 131.093 129.403 C 131.298 129.546 131.503 129.688 131.493 129.703 C 131.493 129.703 131.299 130.163 131.109 130.417 C 130.92 130.669 130.677 130.923 130.428 131.147 C 129.932 131.592 129.322 132.01 128.722 132.407 C 127.522 133.199 126.335 133.899 125.816 134.77 C 123.561 137.927 123.593 138.503 123.593 165.603 C 123.593 192.668 123.647 193.226 125.805 196.32 C 126.981 198.089 129.225 200.532 130.689 201.6 C 133.257 203.551 134.612 203.604 161.199 203.903 L 189.593 204.208 L 189.593 212.403 C 189.591 217.137 189.053 220.95 188.247 221.757 C 187.227 222.776 179.904 223.103 161.893 223.103 L 137.593 223.103 L 137.593 234.103 L 162.593 234.103 C 191.535 234.11 193.423 233.727 197.769 226.638 C 200.13 222.971 200.093 223.001 200.393 184.799 C 200.694 144.118 200.353 138.382 196.412 133.827 C 195.381 132.512 194.431 132.38 193.002 132.599 C 191.54 132.824 189.7 133.517 187.145 133.976 C 182.079 134.886 174.244 134.783 161.163 128.047 C 150.634 122.567 145.62 115.199 142.04 113.136 C 141.183 112.642 140.558 112.488 139.859 112.695 C 139.138 112.908 138.474 113.478 137.664 114.665 C 136.001 117.101 134.146 121.74 131.568 129.56 L 131.093 129.403 Z M 187.833 139.837 C 189.313 141.307 189.593 145.29 189.593 166.003 C 189.593 183.514 189.266 190.737 188.247 191.757 C 187.276 192.727 174.326 193.178 161.593 193.178 C 148.86 193.178 133.593 183.514 133.593 166.003 C 133.593 142.003 133.702 141.497 136.009 139.791 C 137.858 138.548 150.206 137.903 162.306 137.903 C 168.355 137.903 174.381 138.053 179.033 138.354 C 181.362 138.505 183.363 138.694 184.848 138.921 C 185.595 139.035 186.234 139.164 186.713 139.3 C 187.209 139.441 187.63 139.722 187.63 139.722 C 187.647 139.728 187.57 139.966 187.493 140.203 L 187.833 139.837 Z M 187.356 140.684 C 187.356 140.684 187.356 140.684 187.355 140.683 C 187.355 140.684 187.356 140.684 187.356 140.684 Z M 186.439 140.262 C 185.998 140.136 185.421 140.021 184.696 139.91 C 183.24 139.687 181.282 139.501 178.969 139.352 C 174.336 139.053 168.343 138.903 162.305 138.903 C 150.23 138.903 138.149 139.457 136.581 140.611 C 134.49 141.905 134.593 142.003 134.593 166.003 C 134.593 183.492 188.593 183.492 188.593 166.003 C 188.593 145.316 188.473 141.699 187.153 140.569 C 186.971 140.471 186.693 140.334 186.439 140.262 Z M 218.132 129.863 L 217.819 129.385 C 221.12 127.246 221.958 127.103 249.093 127.103 C 276.228 127.103 277.084 127.259 280.386 129.398 C 282.209 130.716 284.761 133.067 285.893 134.603 C 288.043 137.553 288.093 138.703 288.093 181.103 C 288.093 223.324 287.944 224.671 285.896 227.499 C 284.771 229.028 282.527 231.274 280.998 232.399 C 278.26 234.451 276.41 234.603 250.999 234.903 L 223.593 235.209 L 223.593 222.103 L 248.993 222.103 C 270.38 222.103 274.025 221.955 275.155 220.634 C 276.277 219.679 276.596 217.364 276.593 212.003 L 276.593 205.103 L 250.393 205.103 C 225.38 205.103 223.374 204.979 219.177 202.954 C 216.829 201.824 213.74 199.352 212.491 197.601 C 210.142 194.352 210.093 193.603 210.093 165.903 C 210.093 138.884 210.241 137.437 212.29 134.607 C 212.86 133.833 213.79 132.848 214.789 131.913 C 215.288 131.446 215.814 130.98 216.324 130.554 C 216.834 130.127 217.772 129.419 217.772 129.419 C 217.776 129.417 217.963 129.651 218.132 129.863 Z M 218.377 130.214 C 218.28 130.287 217.904 130.565 217.698 130.727 C 217.458 130.915 217.215 131.112 216.965 131.321 C 216.466 131.738 215.961 132.185 215.472 132.643 C 214.496 133.558 213.626 134.473 213.096 135.199 C 211.145 137.769 211.093 138.922 211.093 165.903 C 211.093 193.603 211.044 194.054 213.295 197.005 C 214.446 198.654 217.357 200.982 219.609 202.052 C 223.612 204.027 225.406 204.103 250.393 204.103 L 277.593 204.103 L 277.593 212.003 C 277.59 217.443 277.109 220.127 275.831 221.372 C 274.361 222.851 270.406 223.103 248.993 223.103 L 224.593 223.103 L 224.593 234.197 L 250.987 233.903 C 276.375 233.603 277.926 233.555 280.388 231.607 C 281.859 230.532 284.015 228.378 285.09 226.907 C 287.042 224.335 287.093 223.282 287.093 181.103 C 287.093 138.703 287.143 137.853 285.093 135.203 C 284.025 133.739 281.584 131.496 279.808 130.214 C 276.719 128.159 276.158 128.103 249.093 128.103 C 222.058 128.103 221.467 128.159 218.377 130.214 Z M 275.175 139.79 C 277.484 141.496 277.593 142.103 277.593 165.603 C 277.593 186.016 277.314 189.875 275.847 191.356 C 274.366 192.824 270.306 193.103 248.593 193.103 C 236.542 193.103 230.149 193.078 226.645 192.827 C 223.017 192.567 222.209 191.901 221.646 190.927 C 221.02 189.625 220.593 179.713 220.593 165.703 C 220.593 143.885 220.724 142.265 222.739 140.249 C 224.755 138.234 226.375 138.103 248.893 138.103 C 258.846 138.103 264.887 138.178 268.674 138.416 C 272.497 138.657 274.924 139.704 274.924 139.704 C 274.955 139.709 274.848 140.096 274.773 140.379 L 275.175 139.79 Z M 274.709 140.668 C 274.709 140.668 274.709 140.668 274.709 140.668 C 274.709 140.668 274.709 140.668 274.709 140.668 Z M 273.863 140.226 C 273.547 140.101 273.189 139.995 272.721 139.893 C 271.772 139.687 270.485 139.532 268.612 139.415 C 264.849 139.178 258.84 139.103 248.893 139.103 C 226.411 139.103 225.231 139.172 223.447 140.957 C 221.662 142.741 221.593 143.921 221.593 165.703 C 221.593 179.693 221.965 189.355 222.538 190.475 C 222.972 191.289 223.369 191.589 226.716 191.829 C 230.187 192.078 236.544 192.103 248.593 192.103 C 270.28 192.103 273.997 191.983 275.127 190.663 C 276.447 189.532 276.593 185.99 276.593 165.603 C 276.593 142.103 276.702 141.91 274.611 140.616 L 274.614 140.612 C 274.445 140.515 274.091 140.316 273.863 140.226 Z M 305.8 130.083 L 305.437 129.473 C 309.244 127.239 310.572 127.104 333.393 127.103 L 357.593 127.103 L 357.593 139.103 L 334.893 139.103 C 315.709 139.103 312.668 139.245 311.224 140.678 C 309.608 142.001 309.593 144.213 309.593 173.303 L 309.593 205.23 L 303.367 204.902 L 297.093 204.578 L 297.093 171.603 C 297.093 140.588 297.229 138.761 299.262 135.35 C 299.837 134.364 300.828 133.185 301.935 132.129 C 302.489 131.601 303.088 131.086 303.679 130.635 C 304.271 130.183 305.39 129.505 305.39 129.505 C 305.398 129.5 305.632 129.84 305.8 130.083 Z M 305.948 130.332 C 305.843 130.393 305.371 130.668 305.125 130.831 C 304.846 131.016 304.569 131.214 304.285 131.43 C 303.717 131.864 303.16 132.342 302.626 132.852 C 301.558 133.871 300.65 134.94 300.126 135.854 C 298.161 139.039 298.093 140.618 298.093 171.603 L 298.093 203.628 L 303.419 203.904 L 308.593 204.176 L 308.593 173.303 C 308.593 144.193 308.774 141.609 310.558 139.932 C 312.315 138.37 315.677 138.103 334.893 138.103 L 356.593 138.103 L 356.593 128.103 L 333.393 128.103 C 310.614 128.102 309.542 128.167 305.949 130.333 L 305.948 130.332 Z M 305.969 130.32 C 305.969 130.32 305.969 130.32 305.969 130.32 C 305.969 130.32 305.969 130.32 305.969 130.32 Z M 368.098 133.897 C 368.917 132.825 383.984 127.203 403.893 127.103 C 433.142 127.108 434.326 127.388 440.456 133.659 L 444.089 137.5 L 444.393 154.593 L 444.805 172.103 L 377.593 172.103 L 377.593 181.003 C 377.587 189.649 377.69 190.351 379.59 191.6 C 381.352 192.952 386.103 193.103 412.793 193.103 L 444.593 193.103 L 444.593 205.103 L 412.393 205.103 C 393.986 205.103 379.013 204.692 376.754 204.083 C 372.141 202.714 365.964 196.112 365.1 191.485 C 364.796 189.648 364.593 176.804 364.793 162.996 L 365.095 137.728 L 368.098 133.897 Z M 403.894 128.103 C 384.004 128.203 369.671 133.479 368.891 134.506 L 366.091 138.078 L 365.793 163.009 C 365.593 176.801 365.79 189.558 366.086 191.321 C 366.822 195.694 372.638 201.89 377.025 203.121 C 379.167 203.712 394 204.103 412.393 204.103 L 443.593 204.103 L 443.593 194.103 L 412.793 194.103 C 386.083 194.103 381.041 193.859 379.003 192.41 C 376.905 190.861 376.599 189.757 376.593 181.003 L 376.593 171.103 L 443.781 171.103 L 443.393 154.615 L 443.097 137.906 L 439.73 134.347 C 433.864 128.222 433.044 128.098 403.894 128.103 Z M 430.947 139.849 C 432.319 141.303 432.592 143.589 432.393 151.019 L 432.077 160.598 L 431.599 160.603 L 404.397 160.903 L 376.593 161.107 L 376.593 151.203 C 376.596 143.864 377.067 141.198 378.331 139.858 C 379.801 138.379 383.78 138.103 404.593 138.103 C 425.707 138.103 430.593 139.703 430.593 139.703 C 430.602 139.703 430.485 140.103 430.413 140.383 L 430.947 139.849 Z M 430.364 140.648 C 430.364 140.648 430.364 140.647 430.364 140.647 C 430.364 140.647 430.364 140.647 430.364 140.648 Z M 429.71 140.177 C 429.467 140.051 429.187 139.949 428.785 139.847 C 427.959 139.639 426.777 139.489 424.95 139.377 C 421.276 139.153 415.141 139.103 404.593 139.103 C 383.806 139.103 380.189 139.223 379.059 140.543 C 377.929 141.606 377.59 143.943 377.593 151.203 L 377.593 160.099 L 404.388 159.903 L 431.109 159.608 L 431.393 150.988 C 431.594 143.62 431.467 141.703 430.239 140.557 L 430.245 140.551 C 430.103 140.438 429.866 140.257 429.71 140.177 Z M 461.081 129.953 L 460.739 129.372 C 464.235 127.339 465.962 127.103 491.393 127.103 C 521.442 127.103 523.137 127.501 528.087 133.895 L 531.093 137.73 L 531.093 181.203 C 531.092 223.324 530.944 224.671 528.896 227.499 C 527.771 229.028 525.527 231.274 523.998 232.399 C 521.26 234.451 519.41 234.603 493.999 234.903 L 466.593 235.209 L 466.593 222.103 L 491.993 222.103 C 506.647 222.103 513.573 222.228 516.846 220.926 C 518.405 220.306 519.01 219.481 519.334 217.983 C 519.666 216.445 519.593 214.337 519.593 211.403 L 519.593 205.103 L 493.393 205.103 C 463.246 205.098 460.441 204.492 455.585 197.791 C 453.139 194.247 453.093 193.806 452.793 166.809 C 452.494 140.483 452.626 139.259 454.754 135.464 C 455.329 134.375 456.318 133.121 457.4 132.027 C 457.941 131.479 458.522 130.953 459.086 130.503 C 459.651 130.051 460.681 129.412 460.681 129.412 C 460.69 129.406 460.911 129.716 461.081 129.953 Z M 461.246 130.233 C 461.132 130.3 460.719 130.547 460.497 130.699 C 460.238 130.876 459.979 131.069 459.71 131.284 C 459.17 131.715 458.633 132.202 458.111 132.729 C 457.068 133.785 456.16 134.924 455.636 135.935 C 453.567 139.534 453.492 140.523 453.793 166.797 C 454.093 193.8 454.047 193.959 456.401 197.215 C 460.945 203.714 463.34 204.107 493.393 204.103 L 520.593 204.103 L 520.593 211.403 C 520.593 214.319 520.67 216.536 520.311 218.195 C 519.944 219.894 519.019 221.138 517.215 221.855 C 513.763 223.228 506.639 223.103 491.993 223.103 L 467.593 223.103 L 467.593 234.197 L 493.987 233.903 C 519.375 233.603 520.926 233.555 523.388 231.607 C 524.859 230.532 527.015 228.378 528.09 226.907 C 530.042 224.335 530.094 223.282 530.093 181.203 L 530.093 138.076 L 527.299 134.511 C 522.649 128.305 521.344 128.103 491.393 128.103 C 466.024 128.103 464.551 128.267 461.246 130.234 L 461.246 130.233 Z M 461.276 130.215 C 461.276 130.215 461.276 130.215 461.276 130.215 C 461.276 130.215 461.276 130.215 461.276 130.215 Z M 518.175 139.79 C 520.484 141.496 520.593 142.103 520.593 164.903 C 520.593 184.321 520.249 188.661 518.906 190.685 C 517.2 192.994 516.693 193.103 491.693 193.103 C 473.383 193.103 465.959 192.776 464.939 191.757 C 463.92 190.737 463.593 183.514 463.593 166.003 C 463.593 142.003 463.702 141.497 466.008 139.792 C 467.825 138.549 480.006 137.903 492.093 137.903 C 498.137 137.903 504.19 138.053 508.934 138.354 C 511.308 138.504 513.37 138.694 514.935 138.921 C 515.722 139.035 516.402 139.161 516.93 139.297 C 517.469 139.435 518.017 139.719 518.017 139.719 C 518.031 139.723 517.962 139.963 517.893 140.203 L 518.175 139.79 Z M 517.769 140.687 C 517.769 140.687 517.769 140.687 517.768 140.687 C 517.769 140.687 517.769 140.687 517.769 140.687 Z M 516.682 140.265 C 516.186 140.138 515.558 140.021 514.792 139.91 C 513.252 139.687 511.231 139.502 508.871 139.352 C 504.146 139.053 498.124 138.903 492.093 138.903 C 480.03 138.903 468.102 139.455 466.587 140.607 C 464.496 141.901 464.593 142.003 464.593 166.003 C 464.593 183.492 464.866 190.269 465.647 191.049 C 466.427 191.83 473.403 192.103 491.693 192.103 C 516.693 192.103 516.786 192.212 518.08 190.121 C 519.337 188.345 519.593 184.285 519.593 164.903 C 519.593 142.103 519.702 141.91 517.611 140.616 L 517.613 140.614 C 517.402 140.518 517.014 140.351 516.682 140.265 Z M 540.593 133.103 L 540.593 138.103 L 571.993 138.103 C 600.005 138.103 604.428 138.331 605.947 139.849 C 607.359 141.262 607.592 143.586 607.393 151.017 L 607.093 160.119 L 607.077 160.599 L 573.398 160.903 L 540.593 161.1 L 540.593 175.503 C 540.592 183.787 541.077 191.599 541.661 193.127 C 543.097 197.23 548.229 202.08 552.223 203.12 C 554.054 203.709 569.599 204.103 587.393 204.103 L 618.688 204.103 L 618.095 138.186 L 615.709 135.323 C 612.733 131.685 611.915 130.137 607.157 129.308 C 602.249 128.453 593.341 128.453 574.389 128.303 L 540.593 128.007 L 540.593 133.103 L 539.593 133.103 L 539.593 126.999 L 574.397 127.303 C 593.345 127.453 602.337 127.453 607.329 128.323 C 612.471 129.219 613.555 131.123 616.478 134.684 L 619.091 137.82 L 619.698 205.103 L 587.393 205.103 C 569.587 205.103 553.968 204.693 551.953 204.083 C 547.746 202.924 542.289 197.776 540.725 193.479 C 540.109 191.807 539.593 183.819 539.593 175.503 L 539.593 160.106 L 573.389 159.903 L 606.109 159.607 L 606.393 150.988 C 606.594 143.62 606.427 141.744 605.239 140.557 C 603.958 139.275 599.981 139.103 571.993 139.103 L 539.593 139.103 L 539.593 133.103 L 540.593 133.103 Z M 607.079 193.597 L 606.599 193.603 L 581.698 193.903 C 566.104 194.053 558.597 194.305 555.002 192.815 C 553.124 192.037 552.195 190.668 551.839 188.77 C 551.491 186.915 551.593 184.418 551.593 181.103 L 551.593 171.103 L 607.707 171.103 L 607.393 182.317 L 607.079 193.597 Z M 606.393 182.289 L 606.679 172.103 L 552.593 172.103 L 552.593 181.103 C 552.593 184.438 552.495 186.841 552.822 188.586 C 553.141 190.288 553.762 191.219 555.384 191.891 C 558.789 193.301 566.082 193.053 581.688 192.903 L 606.107 192.609 L 606.393 182.289 L 606.893 182.303 L 606.393 182.289 Z M 689.783 130.058 L 689.442 129.47 C 693.343 127.238 694.467 127.104 720.093 127.203 C 738.003 127.203 747.794 127.62 750.166 128.434 C 752.131 129.169 755.141 131.45 756.884 133.592 L 760.09 137.625 L 760.393 154.693 L 760.805 172.103 L 693.593 172.103 L 693.593 181.003 C 693.587 189.649 693.69 190.351 695.59 191.6 C 697.352 192.952 702.103 193.103 728.793 193.103 L 760.593 193.103 L 760.593 205.103 L 727.893 205.103 C 691.341 205.097 689.742 204.698 684.098 197.31 L 681.093 193.476 L 681.093 166.203 C 681.093 140.689 681.229 138.762 683.262 135.35 C 683.837 134.364 684.828 133.185 685.935 132.129 C 686.488 131.601 687.088 131.086 687.679 130.635 C 688.271 130.183 689.39 129.505 689.39 129.505 C 689.398 129.5 689.617 129.818 689.783 130.058 Z M 689.943 130.335 C 689.829 130.401 689.368 130.671 689.125 130.831 C 688.846 131.016 688.569 131.214 688.285 131.43 C 687.717 131.864 687.16 132.342 686.626 132.852 C 685.558 133.871 684.65 134.94 684.126 135.854 C 682.162 139.038 682.093 140.717 682.093 166.203 L 682.093 193.13 L 684.887 196.695 C 690.239 203.901 691.445 204.109 727.893 204.103 L 759.593 204.103 L 759.593 194.103 L 728.793 194.103 C 702.083 194.103 697.046 193.855 695.003 192.41 C 692.905 190.861 692.599 189.757 692.593 181.003 L 692.593 171.103 L 759.781 171.103 L 759.393 154.715 L 759.096 137.981 L 756.102 134.215 C 754.445 132.158 751.66 130.039 749.825 129.374 C 747.59 128.588 737.983 128.203 720.093 128.203 C 694.519 128.102 693.643 128.168 689.944 130.336 L 689.943 130.335 Z M 746.447 139.172 C 748.266 140.346 748.59 141.762 748.593 150.603 L 748.593 161.103 L 692.593 161.103 L 692.593 151.403 C 692.593 148.014 692.485 145.474 692.785 143.587 C 693.092 141.659 693.921 140.261 695.643 139.451 C 698.932 137.902 705.85 138.103 720.293 138.103 C 734.903 138.103 746.193 139.103 746.193 139.103 C 746.199 139.103 746.166 139.418 746.14 139.693 L 746.447 139.172 Z M 746.113 140.096 C 746.113 140.096 746.113 140.096 746.112 140.096 C 746.113 140.096 746.113 140.096 746.113 140.096 Z M 745.254 139.881 C 744.845 139.815 744.313 139.752 743.648 139.692 C 742.312 139.57 740.494 139.465 738.249 139.378 C 733.754 139.203 727.589 139.103 720.293 139.103 C 705.836 139.103 699.154 138.904 696.068 140.355 C 694.602 141.045 694.051 141.997 693.773 143.744 C 693.488 145.532 693.593 147.992 693.593 151.403 L 693.593 160.103 L 747.593 160.103 L 747.593 150.603 C 747.596 141.921 747.521 140.877 745.981 140.056 C 745.815 140.007 745.521 139.925 745.254 139.881 Z M 29.641 151.484 L 29.337 150.973 C 33.153 148.738 35.396 148.631 39.814 150.654 C 43.147 152.32 45.146 154.731 45.576 157.885 C 46.001 161.005 44.958 164.979 42.54 169.827 C 32.035 190.737 18.084 215.706 15.829 217.673 C 12.99 220.186 8.942 220.711 5.495 219.643 C 2.049 218.576 -1.013 215.853 -1.991 212.227 C -2.978 208.164 -2.156 206.184 12.652 178.368 C 17.854 168.614 21.41 162.177 23.953 157.993 C 25.227 155.897 26.258 154.349 27.11 153.239 C 27.972 152.116 29.196 151.099 29.196 151.099 C 29.208 151.085 29.438 151.297 29.641 151.484 Z M 29.848 151.832 C 29.659 151.979 29.252 152.303 29.007 152.553 C 28.675 152.892 28.317 153.31 27.904 153.848 C 27.072 154.932 26.071 156.434 24.808 158.513 C 22.276 162.679 18.732 169.091 13.534 178.838 C -1.258 206.622 -2.036 208.242 -1.023 211.979 C -0.201 215.353 2.537 217.68 5.791 218.688 C 9.044 219.695 12.596 219.32 15.157 216.933 C 17.302 215.1 31.151 190.269 41.646 169.379 C 44.028 164.627 44.985 160.951 44.585 158.021 C 44.19 155.125 42.541 153.088 39.377 151.554 C 35.199 149.579 33.433 149.668 29.849 151.833 L 29.848 151.832 Z M 29.95 151.753 C 29.95 151.753 29.95 151.753 29.95 151.753 C 29.95 151.753 29.95 151.753 29.95 151.753 Z M 46.337 185.412 L 45.91 184.791 C 48.431 183.098 52.013 182.773 55.155 183.581 C 58.298 184.39 61.208 186.388 62.447 189.094 C 64.219 193.016 63.955 197.088 62.172 200.06 C 60.387 203.035 56.973 205.103 52.793 205.103 C 49.973 205.103 47.493 204.383 45.625 203.033 C 43.754 201.682 42.394 199.606 41.71 197.033 C 41.101 194.802 41.223 192.355 41.958 190.216 C 42.325 189.144 42.862 188.097 43.517 187.189 C 44.172 186.28 45.787 184.911 45.787 184.911 C 45.804 184.891 46.126 185.207 46.337 185.412 Z M 46.476 185.615 C 46.362 185.701 46.042 185.943 45.882 186.08 C 45.686 186.247 45.504 186.416 45.322 186.6 C 44.957 186.967 44.634 187.35 44.328 187.773 C 43.717 188.621 43.248 189.537 42.903 190.54 C 42.213 192.551 42.083 194.699 42.675 196.769 C 43.291 199.193 44.482 200.974 46.211 202.223 C 47.943 203.473 50.113 204.103 52.793 204.103 C 56.713 204.103 59.649 202.321 61.314 199.546 C 62.981 196.768 63.267 193.19 61.539 189.512 C 60.478 187.018 57.888 185.316 54.906 184.55 C 51.923 183.783 48.755 184.008 46.476 185.615 Z M 46.517 185.584 C 46.517 185.584 46.517 185.584 46.517 185.584 C 46.517 185.584 46.517 185.584 46.517 185.584 Z" style="fill: none;"></path>
    <path d="M 628.293 148.503 L 627.793 148.506 L 627.49 102.103 L 639.481 102.103 L 639.793 114.791 L 640.081 126.612 L 655.901 126.903 L 672.593 127.109 L 672.593 139.097 L 655.901 139.303 L 640.087 139.594 L 639.793 164.308 C 639.642 180.222 639.169 187.387 641.18 190.614 C 642.146 192.164 643.603 192.744 646.218 192.999 C 648.869 193.258 652.532 193.103 657.593 193.103 L 672.593 193.103 L 672.593 205.316 C 672.593 205.316 628.624 195.06 628.319 188.715 C 628.168 185.589 628.074 181.146 627.999 174.682 C 627.962 171.451 627.929 167.713 627.896 163.38 C 627.88 161.214 627.863 158.898 627.846 156.423 C 627.838 155.185 627.829 153.908 627.82 152.589 C 627.816 151.929 627.811 151.259 627.807 150.579 C 627.805 150.239 627.802 149.896 627.8 149.551 C 627.798 149.205 627.793 148.506 627.793 148.506 C 627.793 148.506 628.043 148.505 628.293 148.503 Z M 628.793 148.5 C 628.793 148.508 628.798 149.201 628.8 149.544 C 628.802 149.889 628.805 150.232 628.807 150.572 C 628.811 151.253 628.816 151.923 628.82 152.582 C 628.829 153.901 628.838 155.179 628.846 156.416 C 628.863 158.891 628.88 161.206 628.896 163.372 C 628.929 167.705 628.962 171.441 628.999 174.671 C 629.074 181.129 629.168 185.554 629.317 188.666 C 629.612 194.796 630.063 195.634 631.093 197.003 C 635.471 202.817 638.074 203.615 655.901 203.903 L 671.593 204.29 L 671.593 194.103 L 657.593 194.103 C 652.554 194.103 648.842 194.26 646.121 193.994 C 643.365 193.725 641.453 192.942 640.331 191.142 C 638.167 187.669 638.644 180.184 638.793 164.298 L 639.093 139.097 L 639.099 138.612 L 655.884 138.303 L 671.593 138.109 L 671.593 128.097 L 655.887 127.903 L 639.584 127.603 L 639.105 127.594 L 638.793 114.815 L 638.505 103.103 L 628.496 103.103 L 628.793 148.5 Z M 48.603 117.863 L 48.298 117.143 C 51.724 115.725 54.559 116.046 57.858 117.979 C 60.342 119.566 65.73 128.861 83.535 162.469 C 95.985 185.92 102.45 198.248 105.148 205.363 C 106.508 208.95 106.934 211.321 106.664 213.08 C 106.387 214.886 105.364 216.139 104.047 217.457 C 102.268 219.235 99.502 220.177 96.813 220.215 C 94.125 220.254 91.302 219.377 89.358 217.674 C 87.206 215.709 74.854 193.243 48.052 142.239 C 44.242 135.118 41.593 128.8 41.593 126.903 C 41.593 125.11 42.45 122.965 43.682 121.181 C 44.298 120.29 45.037 119.441 45.811 118.753 C 46.587 118.062 48.161 117.229 48.161 117.229 C 48.18 117.214 48.442 117.619 48.603 117.863 Z M 48.688 118.062 C 48.58 118.11 48.281 118.245 48.129 118.326 C 47.94 118.426 47.76 118.533 47.572 118.655 C 47.195 118.901 46.837 119.178 46.475 119.5 C 45.749 120.146 45.088 120.904 44.504 121.75 C 43.336 123.441 42.593 125.296 42.593 126.903 C 42.593 128.606 45.144 134.688 48.934 141.767 C 75.732 192.763 87.98 215.097 90.028 216.932 C 91.784 218.529 94.261 219.252 96.798 219.216 C 99.334 219.179 101.718 218.371 103.339 216.749 C 104.622 215.467 105.437 214.482 105.675 212.929 C 105.921 211.329 105.54 209.219 104.213 205.718 C 101.536 198.658 95.101 186.386 82.651 162.937 C 64.856 129.345 59.654 120.258 57.335 118.831 C 54.235 116.966 51.862 116.682 48.688 118.063 L 48.688 118.062 Z M 48.728 118.044 C 48.728 118.044 48.728 118.044 48.728 118.044 C 48.728 118.044 48.728 118.044 48.728 118.044 Z M 130.692 129.104 C 130.693 129.104 130.693 129.103 130.693 129.103 C 130.693 129.104 130.692 129.104 130.692 129.104 Z M 130.624 129.248 L 130.618 129.246 C 133.207 121.397 135.113 116.627 136.838 114.101 C 137.722 112.806 138.659 112.007 139.575 111.736 C 140.513 111.458 141.56 111.705 142.54 112.27 C 146.309 114.442 151.278 121.843 161.623 127.159 C 174.478 133.838 181.993 133.885 186.968 132.991 C 189.434 132.549 191.287 131.851 192.85 131.611 C 194.447 131.366 195.857 131.697 197.176 133.181 C 201.233 138.026 201.692 144.088 201.393 184.807 C 201.093 223.005 201.054 223.236 198.616 227.169 C 193.963 234.479 191.651 235.096 162.593 235.103 L 136.593 235.103 L 136.593 222.103 L 161.893 222.103 C 179.882 222.103 186.759 221.83 187.539 221.049 C 188.133 220.456 188.595 217.069 188.593 212.403 L 188.593 205.198 L 161.187 204.903 C 134.574 204.602 132.928 204.453 130.095 202.405 C 128.559 201.272 126.201 198.711 124.977 196.881 C 122.736 193.575 122.593 192.738 122.593 165.603 C 122.593 138.503 122.625 137.679 124.97 134.236 C 125.651 133.207 126.985 132.356 128.171 131.572 C 128.764 131.181 129.312 130.805 129.76 130.403 C 129.981 130.204 130.156 130.022 130.308 129.818 C 130.407 129.685 130.543 129.416 130.624 129.248 Z M 131.093 129.403 C 131.298 129.546 131.503 129.688 131.493 129.703 C 131.493 129.703 131.299 130.163 131.109 130.417 C 130.92 130.669 130.677 130.923 130.428 131.147 C 129.932 131.592 129.322 132.01 128.722 132.407 C 127.522 133.199 126.335 133.899 125.816 134.77 C 123.561 137.927 123.593 138.503 123.593 165.603 C 123.593 192.668 123.647 193.226 125.805 196.32 C 126.981 198.089 129.225 200.532 130.689 201.6 C 133.257 203.551 134.612 203.604 161.199 203.903 L 189.593 204.208 L 189.593 212.403 C 189.591 217.137 189.053 220.95 188.247 221.757 C 187.227 222.776 179.904 223.103 161.893 223.103 L 137.593 223.103 L 137.593 234.103 L 162.593 234.103 C 191.535 234.11 193.423 233.727 197.769 226.638 C 200.13 222.971 200.093 223.001 200.393 184.799 C 200.694 144.118 200.353 138.382 196.412 133.827 C 195.381 132.512 194.431 132.38 193.002 132.599 C 191.54 132.824 189.7 133.517 187.145 133.976 C 182.079 134.886 174.244 134.783 161.163 128.047 C 150.634 122.567 145.62 115.199 142.04 113.136 C 141.183 112.642 140.558 112.488 139.859 112.695 C 139.138 112.908 138.474 113.478 137.664 114.665 C 136.001 117.101 134.146 121.74 131.568 129.56 L 131.093 129.403 Z M 187.833 139.837 C 189.313 141.307 189.593 145.29 189.593 166.003 C 189.593 183.514 189.266 190.737 188.247 191.757 C 187.276 192.727 174.326 193.178 161.593 193.178 C 148.86 193.178 133.593 183.514 133.593 166.003 C 133.593 142.003 133.702 141.497 136.009 139.791 C 137.858 138.548 150.206 137.903 162.306 137.903 C 168.355 137.903 174.381 138.053 179.033 138.354 C 181.362 138.505 183.363 138.694 184.848 138.921 C 185.595 139.035 186.234 139.164 186.713 139.3 C 187.209 139.441 187.63 139.722 187.63 139.722 C 187.647 139.728 187.57 139.966 187.493 140.203 L 187.833 139.837 Z M 187.356 140.684 C 187.356 140.684 187.356 140.684 187.355 140.683 C 187.355 140.684 187.356 140.684 187.356 140.684 Z M 186.439 140.262 C 185.998 140.136 185.421 140.021 184.696 139.91 C 183.24 139.687 181.282 139.501 178.969 139.352 C 174.336 139.053 168.343 138.903 162.305 138.903 C 150.23 138.903 138.149 139.457 136.581 140.611 C 134.49 141.905 134.593 142.003 134.593 166.003 C 134.593 183.492 186.81 191.779 187.539 191.049 C 188.32 190.269 188.593 183.492 188.593 166.003 C 188.593 145.316 188.473 141.699 187.153 140.569 C 186.971 140.471 186.693 140.334 186.439 140.262 Z M 218.132 129.863 L 217.819 129.385 C 221.12 127.246 221.958 127.103 249.093 127.103 C 276.228 127.103 277.084 127.259 280.386 129.398 C 282.209 130.716 284.761 133.067 285.893 134.603 C 288.043 137.553 288.093 138.703 288.093 181.103 C 288.093 223.324 287.944 224.671 285.896 227.499 C 284.771 229.028 282.527 231.274 280.998 232.399 C 278.26 234.451 276.41 234.603 250.999 234.903 L 223.593 235.209 L 223.593 222.103 L 248.993 222.103 C 270.38 222.103 274.025 221.955 275.155 220.634 C 276.277 219.679 276.596 217.364 276.593 212.003 L 276.593 205.103 L 250.393 205.103 C 225.38 205.103 223.374 204.979 219.177 202.954 C 216.829 201.824 213.74 199.352 212.491 197.601 C 210.142 194.352 210.093 193.603 210.093 165.903 C 210.093 138.884 210.241 137.437 212.29 134.607 C 212.86 133.833 213.79 132.848 214.789 131.913 C 215.288 131.446 215.814 130.98 216.324 130.554 C 216.834 130.127 217.772 129.419 217.772 129.419 C 217.776 129.417 217.963 129.651 218.132 129.863 Z M 218.377 130.214 C 218.28 130.287 217.904 130.565 217.698 130.727 C 217.458 130.915 217.215 131.112 216.965 131.321 C 216.466 131.738 215.961 132.185 215.472 132.643 C 214.496 133.558 213.626 134.473 213.096 135.199 C 211.145 137.769 211.093 138.922 211.093 165.903 C 211.093 193.603 211.044 194.054 213.295 197.005 C 214.446 198.654 217.357 200.982 219.609 202.052 C 223.612 204.027 225.406 204.103 250.393 204.103 L 277.593 204.103 L 277.593 212.003 C 277.59 217.443 277.109 220.127 275.831 221.372 C 274.361 222.851 270.406 223.103 248.993 223.103 L 224.593 223.103 L 224.593 234.197 L 250.987 233.903 C 276.375 233.603 277.926 233.555 280.388 231.607 C 281.859 230.532 284.015 228.378 285.09 226.907 C 287.042 224.335 287.093 223.282 287.093 181.103 C 287.093 138.703 287.143 137.853 285.093 135.203 C 284.025 133.739 281.584 131.496 279.808 130.214 C 276.719 128.159 276.158 128.103 249.093 128.103 C 222.058 128.103 221.467 128.159 218.377 130.214 Z M 275.175 139.79 C 277.484 141.496 277.593 142.103 277.593 165.603 C 277.593 186.016 277.314 189.875 275.847 191.356 C 274.366 192.824 270.306 193.103 248.593 193.103 C 236.542 193.103 230.149 193.078 226.645 192.827 C 223.017 192.567 222.209 191.901 221.646 190.927 C 221.02 189.625 220.593 179.713 220.593 165.703 C 220.593 143.885 220.724 142.265 222.739 140.249 C 224.755 138.234 226.375 138.103 248.893 138.103 C 258.846 138.103 264.887 138.178 268.674 138.416 C 272.497 138.657 274.924 139.704 274.924 139.704 C 274.955 139.709 274.848 140.096 274.773 140.379 L 275.175 139.79 Z M 274.709 140.668 C 274.709 140.668 274.709 140.668 274.709 140.668 C 274.709 140.668 274.709 140.668 274.709 140.668 Z M 273.863 140.226 C 273.547 140.101 273.189 139.995 272.721 139.893 C 271.772 139.687 270.485 139.532 268.612 139.415 C 264.849 139.178 258.84 139.103 248.893 139.103 C 226.411 139.103 225.231 139.172 223.447 140.957 C 221.662 142.741 221.593 143.921 221.593 165.703 C 221.593 179.693 221.965 189.355 222.538 190.475 C 222.972 191.289 223.369 191.589 226.716 191.829 C 230.187 192.078 236.544 192.103 248.593 192.103 C 270.28 192.103 273.997 191.983 275.127 190.663 C 276.447 189.532 276.593 185.99 276.593 165.603 C 276.593 142.103 276.702 141.91 274.611 140.616 L 274.614 140.612 C 274.445 140.515 274.091 140.316 273.863 140.226 Z M 305.8 130.083 L 305.437 129.473 C 309.244 127.239 310.572 127.104 333.393 127.103 L 357.593 127.103 L 357.593 139.103 L 334.893 139.103 C 315.709 139.103 312.668 139.245 311.224 140.678 C 309.608 142.001 309.593 144.213 309.593 173.303 L 309.593 205.23 L 303.367 204.902 L 297.093 204.578 L 297.093 171.603 C 297.093 140.588 297.229 138.761 299.262 135.35 C 299.837 134.364 300.828 133.185 301.935 132.129 C 302.489 131.601 303.088 131.086 303.679 130.635 C 304.271 130.183 305.39 129.505 305.39 129.505 C 305.398 129.5 305.632 129.84 305.8 130.083 Z M 305.948 130.332 C 305.843 130.393 305.371 130.668 305.125 130.831 C 304.846 131.016 304.569 131.214 304.285 131.43 C 303.717 131.864 303.16 132.342 302.626 132.852 C 301.558 133.871 300.65 134.94 300.126 135.854 C 298.161 139.039 298.093 140.618 298.093 171.603 L 298.093 203.628 L 303.419 203.904 L 308.593 204.176 L 308.593 173.303 C 308.593 144.193 308.774 141.609 310.558 139.932 C 312.315 138.37 315.677 138.103 334.893 138.103 L 356.593 128.103 L 333.393 128.103 C 310.614 128.102 309.542 128.167 305.949 130.333 L 305.948 130.332 Z M 305.969 130.32 C 305.969 130.32 305.969 130.32 305.969 130.32 C 305.969 130.32 305.969 130.32 305.969 130.32 Z M 365.095 137.728 C 365.095 137.728 434.326 127.388 440.456 133.659 L 444.089 137.5 L 444.393 154.593 L 444.805 172.103 L 377.593 172.103 L 377.593 181.003 C 377.587 189.649 377.69 190.351 379.59 191.6 C 381.352 192.952 386.103 193.103 412.793 193.103 L 444.593 193.103 L 444.593 205.103 L 412.393 205.103 C 393.986 205.103 379.013 204.692 376.754 204.083 C 372.141 202.714 365.964 196.112 365.1 191.485 C 364.796 189.648 364.593 176.804 364.793 162.996 L 365.095 137.728 Z M 403.894 128.103 C 384.004 128.203 366.091 138.078 366.091 138.078 L 365.793 163.009 C 365.593 176.801 365.79 189.558 366.086 191.321 C 366.822 195.694 372.638 201.89 377.025 203.121 C 379.167 203.712 394 204.103 412.393 204.103 L 443.593 204.103 L 443.593 194.103 L 412.793 194.103 C 386.083 194.103 381.041 193.859 379.003 192.41 C 376.905 190.861 376.599 189.757 376.593 181.003 L 376.593 171.103 L 443.781 171.103 L 443.393 154.615 L 443.097 137.906 L 439.73 134.347 C 433.864 128.222 433.044 128.098 403.894 128.103 Z M 430.947 139.849 C 432.319 141.303 432.592 143.589 432.393 151.019 L 432.077 160.598 L 431.599 160.603 L 404.397 160.903 L 376.593 161.107 L 376.593 151.203 C 376.596 143.864 377.067 141.198 378.331 139.858 C 379.801 138.379 383.78 138.103 404.593 138.103 C 425.707 138.103 430.593 139.703 430.593 139.703 C 430.602 139.703 430.485 140.103 430.413 140.383 L 430.947 139.849 Z M 430.364 140.648 C 430.364 140.648 430.364 140.647 430.364 140.647 C 430.364 140.647 430.364 140.647 430.364 140.648 Z M 429.71 140.177 C 429.467 140.051 429.187 139.949 428.785 139.847 C 427.959 139.639 426.777 139.489 424.95 139.377 C 421.276 139.153 415.141 139.103 404.593 139.103 C 383.806 139.103 380.189 139.223 379.059 140.543 C 377.929 141.606 377.59 143.943 377.593 151.203 L 377.593 160.099 L 404.388 159.903 L 431.109 159.608 L 431.393 150.988 C 431.594 143.62 431.467 141.703 430.239 140.557 L 430.245 140.551 C 430.103 140.438 429.866 140.257 429.71 140.177 Z M 461.081 129.953 L 460.739 129.372 C 464.235 127.339 465.962 127.103 491.393 127.103 C 521.442 127.103 523.137 127.501 528.087 133.895 L 531.093 137.73 L 531.093 181.203 C 531.092 223.324 530.944 224.671 528.896 227.499 C 527.771 229.028 525.527 231.274 523.998 232.399 C 521.26 234.451 519.41 234.603 493.999 234.903 L 466.593 235.209 L 466.593 222.103 L 491.993 222.103 C 506.647 222.103 513.573 222.228 516.846 220.926 C 518.405 220.306 519.01 219.481 519.334 217.983 C 519.666 216.445 519.593 214.337 519.593 211.403 L 519.593 205.103 L 493.393 205.103 C 463.246 205.098 460.441 204.492 455.585 197.791 C 453.139 194.247 453.093 193.806 452.793 166.809 C 452.494 140.483 452.626 139.259 454.754 135.464 C 455.329 134.375 456.318 133.121 457.4 132.027 C 457.941 131.479 458.522 130.953 459.086 130.503 C 459.651 130.051 460.681 129.412 460.681 129.412 C 460.69 129.406 460.911 129.716 461.081 129.953 Z M 461.246 130.233 C 461.132 130.3 460.719 130.547 460.497 130.699 C 460.238 130.876 459.979 131.069 459.71 131.284 C 459.17 131.715 458.633 132.202 458.111 132.729 C 457.068 133.785 456.16 134.924 455.636 135.935 C 453.567 139.534 453.492 140.523 453.793 166.797 C 454.093 193.8 454.047 193.959 456.401 197.215 C 460.945 203.714 463.34 204.107 493.393 204.103 L 520.593 204.103 L 520.593 211.403 C 520.593 214.319 520.67 216.536 520.311 218.195 C 519.944 219.894 519.019 221.138 517.215 221.855 C 513.763 223.228 506.639 223.103 491.993 223.103 L 467.593 223.103 L 467.593 234.197 L 493.987 233.903 C 519.375 233.603 520.926 233.555 523.388 231.607 C 524.859 230.532 527.015 228.378 528.09 226.907 C 530.042 224.335 530.094 223.282 530.093 181.203 L 530.093 138.076 L 527.299 134.511 C 522.649 128.305 521.344 128.103 491.393 128.103 C 466.024 128.103 464.551 128.267 461.246 130.234 L 461.246 130.233 Z M 461.276 130.215 C 461.276 130.215 461.276 130.215 461.276 130.215 C 461.276 130.215 461.276 130.215 461.276 130.215 Z M 518.175 139.79 C 520.484 141.496 520.593 142.103 520.593 164.903 C 520.593 184.321 520.249 188.661 518.906 190.685 C 517.2 192.994 516.693 193.103 491.693 193.103 C 473.383 193.103 465.959 192.776 464.939 191.757 C 463.92 190.737 463.593 183.514 463.593 166.003 C 463.593 142.003 463.702 141.497 466.008 139.792 C 467.825 138.549 480.006 137.903 492.093 137.903 C 498.137 137.903 504.19 138.053 508.934 138.354 C 511.308 138.504 513.37 138.694 514.935 138.921 C 515.722 139.035 516.402 139.161 516.93 139.297 C 517.469 139.435 518.017 139.719 518.017 139.719 C 518.031 139.723 517.962 139.963 517.893 140.203 L 518.175 139.79 Z M 517.769 140.687 C 517.769 140.687 517.769 140.687 517.768 140.687 C 517.769 140.687 517.769 140.687 517.769 140.687 Z M 516.682 140.265 C 516.186 140.138 515.558 140.021 514.792 139.91 C 513.252 139.687 511.231 139.502 508.871 139.352 C 504.146 139.053 498.124 138.903 492.093 138.903 C 480.03 138.903 468.102 139.455 466.587 140.607 C 464.496 141.901 464.593 142.003 464.593 166.003 C 464.593 183.492 464.866 190.269 465.647 191.049 C 466.427 191.83 473.403 192.103 491.693 192.103 C 516.693 192.103 516.786 192.212 518.08 190.121 C 519.337 188.345 519.593 184.285 519.593 164.903 C 519.593 142.103 519.702 141.91 517.611 140.616 L 517.613 140.614 C 517.402 140.518 517.014 140.351 516.682 140.265 Z M 540.593 133.103 L 540.593 138.103 L 571.993 138.103 C 600.005 138.103 604.428 138.331 605.947 139.849 C 607.359 141.262 607.592 143.586 607.393 151.017 L 607.093 160.119 L 607.077 160.599 L 573.398 160.903 L 540.593 161.1 L 540.593 175.503 C 540.592 183.787 541.077 191.599 541.661 193.127 C 543.097 197.23 548.229 202.08 552.223 203.12 C 554.054 203.709 569.599 204.103 587.393 204.103 L 618.688 204.103 L 618.095 138.186 L 615.709 135.323 C 612.733 131.685 611.915 130.137 607.157 129.308 C 602.249 128.453 593.341 128.453 574.389 128.303 L 540.593 128.007 L 540.593 133.103 L 539.593 133.103 L 539.593 126.999 L 574.397 127.303 C 593.345 127.453 602.337 127.453 607.329 128.323 C 612.471 129.219 613.555 131.123 616.478 134.684 L 619.091 137.82 L 619.698 205.103 L 587.393 205.103 C 569.587 205.103 553.968 204.693 551.953 204.083 C 547.746 202.924 542.289 197.776 540.725 193.479 C 540.109 191.807 539.593 183.819 539.593 175.503 L 539.593 160.106 L 573.389 159.903 L 606.109 159.607 L 606.393 150.988 C 606.594 143.62 606.427 141.744 605.239 140.557 C 603.958 139.275 599.981 139.103 571.993 139.103 L 539.593 139.103 L 539.593 133.103 L 540.593 133.103 Z M 607.079 193.597 L 606.599 193.603 L 581.698 193.903 C 566.104 194.053 558.597 194.305 555.002 192.815 C 553.124 192.037 552.195 190.668 551.839 188.77 C 551.491 186.915 551.593 184.418 551.593 181.103 L 551.593 171.103 L 607.707 171.103 L 607.393 182.317 L 607.079 193.597 Z M 606.393 182.289 L 606.679 172.103 L 552.593 172.103 L 552.593 181.103 C 552.593 184.438 552.495 186.841 552.822 188.586 C 553.141 190.288 553.762 191.219 555.384 191.891 C 558.789 193.301 566.082 193.053 581.688 192.903 L 606.107 192.609 L 606.393 182.289 L 606.893 182.303 L 606.393 182.289 Z M 689.783 130.058 L 689.442 129.47 C 693.343 127.238 694.467 127.104 720.093 127.203 C 738.003 127.203 747.794 127.62 750.166 128.434 C 752.131 129.169 755.141 131.45 756.884 133.592 L 760.09 137.625 L 760.393 154.693 L 760.805 172.103 L 693.593 172.103 L 693.593 181.003 C 693.587 189.649 693.69 190.351 695.59 191.6 C 697.352 192.952 702.103 193.103 728.793 193.103 L 760.593 193.103 L 760.593 205.103 L 727.893 205.103 C 691.341 205.097 689.742 204.698 684.098 197.31 L 681.093 193.476 L 681.093 166.203 C 681.093 140.689 681.229 138.762 683.262 135.35 C 683.837 134.364 684.828 133.185 685.935 132.129 C 686.488 131.601 687.088 131.086 687.679 130.635 C 688.271 130.183 689.39 129.505 689.39 129.505 C 689.398 129.5 689.617 129.818 689.783 130.058 Z M 689.943 130.335 C 689.829 130.401 689.368 130.671 689.125 130.831 C 688.846 131.016 688.569 131.214 688.285 131.43 C 687.717 131.864 687.16 132.342 686.626 132.852 C 685.558 133.871 684.65 134.94 684.126 135.854 C 682.162 139.038 682.093 140.717 682.093 166.203 L 682.093 193.13 L 684.887 196.695 C 690.239 203.901 691.445 204.109 727.893 204.103 L 759.593 204.103 L 759.593 194.103 L 728.793 194.103 C 702.083 194.103 697.046 193.855 695.003 192.41 C 692.905 190.861 692.599 189.757 692.593 181.003 L 692.593 171.103 L 759.781 171.103 L 759.393 154.715 L 759.096 137.981 L 756.102 134.215 C 754.445 132.158 751.66 130.039 749.825 129.374 C 747.59 128.588 737.983 128.203 720.093 128.203 C 694.519 128.102 693.643 128.168 689.944 130.336 L 689.943 130.335 Z M 746.447 139.172 C 748.266 140.346 748.59 141.762 748.593 150.603 L 748.593 161.103 L 692.593 161.103 L 692.593 151.403 C 692.593 148.014 692.485 145.474 692.785 143.587 C 693.092 141.659 693.921 140.261 695.643 139.451 C 698.932 137.902 705.85 138.103 720.293 138.103 C 734.903 138.103 746.193 139.103 746.193 139.103 C 746.199 139.103 746.166 139.418 746.14 139.693 L 746.447 139.172 Z M 746.113 140.096 C 746.113 140.096 746.113 140.096 746.112 140.096 C 746.113 140.096 746.113 140.096 746.113 140.096 Z M 745.254 139.881 C 744.845 139.815 744.313 139.752 743.648 139.692 C 742.312 139.57 740.494 139.465 738.249 139.378 C 733.754 139.203 727.589 139.103 720.293 139.103 C 705.836 139.103 699.154 138.904 696.068 140.355 C 694.602 141.045 694.051 141.997 693.773 143.744 C 693.488 145.532 693.593 147.992 693.593 151.403 L 693.593 160.103 L 747.593 160.103 L 747.593 150.603 C 747.596 141.921 747.521 140.877 745.981 140.056 C 745.815 140.007 745.521 139.925 745.254 139.881 Z M 29.641 151.484 L 29.337 150.973 C 33.153 148.738 35.396 148.631 39.814 150.654 C 43.147 152.32 45.146 154.731 45.576 157.885 C 46.001 161.005 44.958 164.979 42.54 169.827 C 32.035 190.737 18.084 215.706 15.829 217.673 C 12.99 220.186 8.942 220.711 5.495 219.643 C 2.049 218.576 -1.013 215.853 -1.991 212.227 C -2.978 208.164 -2.156 206.184 12.652 178.368 C 17.854 168.614 21.41 162.177 23.953 157.993 C 25.227 155.897 26.258 154.349 27.11 153.239 C 27.972 152.116 29.196 151.099 29.196 151.099 C 29.208 151.085 29.438 151.297 29.641 151.484 Z M 29.848 151.832 C 29.659 151.979 29.252 152.303 29.007 152.553 C 28.675 152.892 28.317 153.31 27.904 153.848 C 27.072 154.932 26.071 156.434 24.808 158.513 C 22.276 162.679 18.732 169.091 13.534 178.838 C -1.258 206.622 -2.036 208.242 -1.023 211.979 C -0.201 215.353 2.537 217.68 5.791 218.688 C 9.044 219.695 12.596 219.32 15.157 216.933 C 17.302 215.1 31.151 190.269 41.646 169.379 C 44.028 164.627 44.985 160.951 44.585 158.021 C 44.19 155.125 42.541 153.088 39.377 151.554 C 35.199 149.579 33.433 149.668 29.849 151.833 L 29.848 151.832 Z M 29.95 151.753 C 29.95 151.753 29.95 151.753 29.95 151.753 C 29.95 151.753 29.95 151.753 29.95 151.753 Z M 46.337 185.412 L 45.91 184.791 C 48.431 183.098 52.013 182.773 55.155 183.581 C 58.298 184.39 61.208 186.388 62.447 189.094 C 64.219 193.016 63.955 197.088 62.172 200.06 C 60.387 203.035 56.973 205.103 52.793 205.103 C 49.973 205.103 47.493 204.383 45.625 203.033 C 43.754 201.682 42.394 199.606 41.71 197.033 C 41.101 194.802 41.223 192.355 41.958 190.216 C 42.325 189.144 42.862 188.097 43.517 187.189 C 44.172 186.28 45.787 184.911 45.787 184.911 C 45.804 184.891 46.126 185.207 46.337 185.412 Z M 46.476 185.615 C 46.362 185.701 46.042 185.943 45.882 186.08 C 45.686 186.247 45.504 186.416 45.322 186.6 C 44.957 186.967 44.634 187.35 44.328 187.773 C 43.717 188.621 43.248 189.537 42.903 190.54 C 42.213 192.551 42.083 194.699 42.675 196.769 C 43.291 199.193 44.482 200.974 46.211 202.223 C 47.943 203.473 50.113 204.103 52.793 204.103 C 56.713 204.103 59.649 202.321 61.314 199.546 C 62.981 196.768 63.267 193.19 61.539 189.512 C 60.478 187.018 57.888 185.316 54.906 184.55 C 51.923 183.783 48.755 184.008 46.476 185.615 Z M 46.517 185.584 C 46.517 185.584 46.517 185.584 46.517 185.584 C 46.517 185.584 46.517 185.584 46.517 185.584 Z" style="fill: none;"></path>
  </g>
</svg>