<svg xmlns="http://www.w3.org/2000/svg" version="1.0" viewBox="0 0 402 369"><path d="M102.7 70.8 65 108.6l.2 74.2.3 74.2 36 36c19.8 19.8 37.4 36.7 39.2 37.5 2.7 1.3 12.1 1.5 68.4 1.5h65.3l37.2-37.2 37.2-37.3.4-22.5.3-22.5-8-.7c-4.4-.4-21-.6-36.8-.6-23.9 0-29 .3-30.2 1.5-1.2 1.2-1.5 5.3-1.5 22.4V256H142.2l-.7-36.3c-.4-19.9-.5-38.9-.2-42.2.4-3.3.6-20.1.7-37.3V109h130.7l.7 6.2c.3 3.4.3 11 0 17-.5 8-.4 11.1.6 12.3 1.8 2.2 73.1 2.3 74.9.1.9-1 1.1-6.5.9-18.8l-.3-17.4-37.4-37c-20.5-20.3-38.3-37.2-39.5-37.6-1.1-.3-31.3-.6-67.1-.7l-65-.1-37.8 37.8z"/></svg>