<svg xmlns="http://www.w3.org/2000/svg" version="1.0" viewBox="0 0 946 163"><path d="M68 30.5 54.5 44l1.5 2.8c1.3 2.2 2.5 2.8 6.9 3.4 9 1.1 13.8 7.8 10.8 14.9-2.9 6.9-9.4 9.5-15.9 6.5-4.1-2-6.2-5.4-6.1-10.1.1-2.4-.7-4.1-2.8-6.1l-3-2.8L32.5 66C18.7 79.8 16.8 82.8 19 87.2c.7 1.3 4.8 5.9 9.2 10.4l7.9 8-5.1 3.2c-3.8 2.4-5.6 4.3-7.2 7.8-2.8 6.4-2.2 14.7 1.4 20.2 3.1 4.7 11.4 9.2 16.7 9.2 7.1-.1 15.6-5.9 18.1-12.4l1.1-2.9 9.3 9.1c13.3 13.1 12.9 13.1 30.3-4 7.3-7.3 13.3-13.7 13.3-14.3 0-2.3-5.1-5.9-8.6-6.1-4.5-.1-7.7-1.9-9.7-5.4-4.6-7.7 1.3-17 10.9-17 5.4 0 10.4 5.3 10.4 10.9 0 5.2 3.8 9.8 6.7 8.2 1-.5 7.3-6.5 14.1-13.4C149.6 86.7 150 86.2 150 82c0-4-.5-4.8-8.5-12.9-4.7-4.8-8.5-9-8.5-9.4 0-.4.7-.7 1.5-.7 2.6 0 9.3-7 11.1-11.6 3.3-8.7-.1-18.9-8.3-24.4-3-2-4.9-2.5-10.4-2.5-5.9 0-7.3.4-11 3-2.5 1.8-5.2 4.8-6.3 7.2l-2.1 4.2-9.1-8.9c-8.3-8.2-9.5-9-13-9-3.7 0-4.7.8-17.4 13.5zm30 2c10.7 10.6 14 12.5 14 8.2.1-4 3.8-10.6 7.2-12.7 5-3.2 13.7-2.4 17.8 1.5 4.1 4 5.7 9.3 4.1 14.4-1.5 5.1-7 9.9-12.2 10.7-2.2.4-4.3 1.3-4.6 2.1-.4 1 3.2 5.3 10.1 12.2 6.4 6.4 10.6 11.4 10.6 12.6 0 1.2-4.3 6.3-10.9 12.9-10.9 10.9-12.1 11.4-12.1 5.7 0-1-1.3-3.6-2.9-5.8-7.2-10-22.6-9-28.1 1.8-5.3 10.3.8 22.8 12 24.7l4.1.7-11.4 11.2c-6.3 6.2-12 11.3-12.7 11.3-.7 0-6.4-5.1-12.7-11.3-10.8-10.6-11.5-11.1-12.9-9.3-.8 1.1-1.4 3.2-1.4 4.7 0 3.2-4 8.3-8.1 10.4C39 143.2 27 136 27 126c0-7.5 5.4-13.7 12.9-14.7 2.4-.3 4.5-1.2 4.8-2 .4-.9-3.6-5.7-10.6-12.8-9.5-9.6-11.1-11.6-10.2-13.2.5-1 5.7-6.5 11.4-12.2l10.4-10.3.7 3.3c2.5 13.3 17.5 18.8 27.7 10.2 5.8-4.9 7.3-11.8 4.3-19.4-1.9-4.5-8.3-9.9-11.9-9.9-1.2 0-2.5-.3-2.9-.7C62.7 43.4 84 22 85.9 22c.8 0 6.2 4.7 12.1 10.5zm101.5 1.9c-22.8 5.5-38.3 28.9-36.1 54.5 2.4 28.9 21.4 46.3 50.5 46.3 9.8 0 15.5-1 22.6-3.9 11.2-4.7 20.8-16 24-28.4l1.3-4.9-10.1.1h-10.2l-2.8 5.8c-7.5 15.9-31.1 18.9-44.9 5.7-6.9-6.6-10.1-14.1-10.6-25.3-.4-8.6-.2-9.6 2.5-15.5 5.5-11.7 15.2-17.9 27.9-18 12.6-.1 23.4 6.6 26.7 16.5l1.4 4.2 10.1.3 10 .3-1.4-6.2c-3-12.7-10.6-22-22.7-27.7-10.2-4.8-27.1-6.5-38.2-3.8zm102 .8c-3.1 8.3-35.5 98.2-35.5 98.5 0 .2 4.8.2 10.7.1l10.6-.3 13.1-38.7c7.2-21.3 13.4-38.8 13.7-38.8.3 0 6.9 17.4 14.5 38.7l13.9 38.8 11.3.3c6.1.1 11.2-.1 11.2-.5s-8.7-22.9-19.3-49.8l-19.2-49-12.3-.3c-9.2-.2-12.4.1-12.7 1zM375 69.5V105h20V34h-20v35.5zM458 44v10l49.7.2 49.7.3L584.5 94l27.2 39.5 9.6.3 9.7.3V34h-19l-.2 33.8-.3 33.9-23.6-33.6-23.6-33.6-53.1-.3L458 34v10zm191 0v10h21.3c22.2 0 26.3.6 31.8 4.3 8.3 5.6 12.5 19.7 10.1 34-1.8 10.2-5.2 15.4-12.7 19.1l-6 3-22.2.4-22.3.4V134h23.5c25.8 0 31.1-.7 39.8-5.3 13.8-7.2 20.9-22 20.9-43.7.1-17.9-3.6-29.7-12-38.3C711 36.2 702.1 34 669.4 34H649v10zm121.6-9.2c-.5.9-35.6 98.2-35.6 98.9 0 .1 4.7.3 10.4.3h10.5l1.9-5.3c1.1-2.8 7-20.4 13.1-39 6.2-18.5 11.6-33.7 12-33.7.5 0 7.1 17.5 14.7 39l13.9 39h11.3c6.1 0 11.2-.3 11.2-.8 0-.4-8.7-22.8-19.4-49.7l-19.4-49-12-.3c-6.6-.1-12.3.1-12.6.6zM844 43v8.9l24.3.3 24.4.3 3.5 2.7c6.3 4.8 7.2 15.2 1.9 21.6-4.2 4.9-8 5.6-31.8 6l-22.3.4V134h20V99h10.8l10.7.1 9.1 17.2 9.1 17.2 11.2.3c6.1.1 11.1.1 11.1-.2 0-.3-5.2-8.9-11.5-19.2L903 95.7l2.8-1.7c8.3-5.3 13.3-14.5 14-26.1 1.1-19-8.2-30.2-27.2-32.8-4.3-.6-16.9-1.1-28.2-1.1H844v9z"/><path d="M549 98.8V134h20V91.5l-9.1-13c-5-7.2-9.5-13.4-10-14-.5-.5-.9 13.6-.9 34.3zM458 84v9h74V75h-74v9zm-83 40.5v9.5h73v-19h-73v9.5zm83 0v9.5h74v-19h-74v9.5z"/></svg>