<svg xmlns="http://www.w3.org/2000/svg" version="1.0" viewBox="0 0 508 129"><path d="M105 63v59h29.8l.4-25.3c.3-23.1.5-25.6 2.5-29.9 2.6-5.6 6-8.1 11.4-8.1 8.9 0 9.9 3.8 9.9 37.2V122h30.1l-.3-32.8c-.3-31.7-.4-32.9-2.6-37.7-5-10.8-12.4-15.6-25-16.3-11.2-.6-16.5 1-22.3 6.8l-4.5 4.5.4-21.2.5-21.3H105v59zM40.8 12.9C24.7 18.1 10.9 31.9 6 47.8c-2.9 9.4-2.8 24.5.4 33.3 2.2 6.4 7.3 14.8 11.9 19.9 5.4 6 15.2 11.6 25.2 14.5 8 2.4 23.7 1.7 31.7-1.4 6.5-2.5 17.7-9.6 18.5-11.8.4-.9-5.7-7.7-17.1-19.2C66.9 73.4 59 64.7 59 63.9c0-.8 7.9-9.3 17.5-18.9C86.1 35.4 94 27 94 26.3c0-3-14.3-11.5-23-13.8-8-2.1-23-1.9-30.2.4zm337.3 10.3c-.9 2.4-2.6 6.4-3.7 9.1-1.5 3.8-3.2 5.6-8.6 9.4l-6.8 4.6V59h10v15.8c0 31.3 2.6 39.9 14 45.8 5.7 2.9 23 3.2 32 .5l7-2.2v-11c0-11.1 0-11.1-2.2-10.5-1.3.4-4.9 1.2-8.1 1.8-5.3.9-6.2.9-8.5-.9l-2.7-2-.3-18.7L400 59h21V36h-21V19h-20.1l-1.8 4.2zM223.5 36.6c-3.8.8-9.1 2.5-11.7 3.7l-4.8 2.2 4.2 9.5c2.3 5.2 4.3 9.7 4.4 9.8.1.2 3.6-.8 7.6-2.2 17-5.8 24.1-4.6 26.3 4.6l.7 2.8h-6.3c-14.4.1-27.7 3-35.1 7.7-7.7 4.8-11.2 14.5-9.6 26.5.9 7.1 3.6 12.5 8.2 16.6 4.6 4 10.2 5.6 19.8 5.4 9.3-.1 16.2-2.8 22.1-8.7 2-2.1 3.9-3.6 4.1-3.4.2.2 1.5 2.8 3 5.6l2.6 5.3h21V95.2c-.1-14.7-.5-29.7-.9-33.4-1.5-11.8-7-19.6-17-24.2-6.1-2.7-28-3.3-38.6-1zM250 88.2c0 5.5-3 10.5-7.5 12.4-9.5 3.9-15.9-1.2-12.5-10 1.5-3.9 7.2-6.3 15.8-6.5l4.2-.1v4.2zm46.8-52.4-7.8.3V122h30V98.2c0-27.5.4-29.1 8-33 3.8-2 5.7-2.3 12.3-2 4.2.2 7.7.3 7.7.3s.7-6.1 1.5-13.5c1.1-10.4 1.1-13.6.2-14.3-.7-.4-4.7-.6-9-.4-7 .3-8.2.7-13.2 4.1-3 2.1-6.4 5.4-7.6 7.2-1.1 1.9-2.4 3.2-2.8 3-.4-.3-1.6-3.3-2.6-6.7-1-3.3-2.4-6.2-2.9-6.4-2.7-.8-6.7-1-13.8-.7zm156.9.3c-13.8 3.3-21.5 13.1-20.5 26.2 1 11.9 6.8 18.5 21.8 24.8 16.3 6.8 20.1 10.1 14.8 13-3.6 1.9-19.1.6-28.1-2.5-4.2-1.4-8-2.6-8.2-2.6-.3 0-.5 5.4-.5 11.9v12l5.8 1.6c13.9 4.2 36.9 3.6 46.8-1.1 6.2-2.9 11.6-8.7 13.2-14.3 2-6.6 1.5-15.9-1.2-21.8-3.2-6.7-8.9-10.9-23.4-16.9-12.5-5.2-14.8-7.3-10.7-10 3.2-2.1 9.8-1.4 20.4 2.2 4 1.4 7.6 2.2 7.9 1.9.3-.3 2.2-4.6 4.3-9.5l3.8-9-3.7-1.6c-11.5-4.9-31.5-6.9-42.5-4.3z"/></svg>