<svg version="1.0" viewBox="0 0 508 129" xmlns="http://www.w3.org/2000/svg">
  <path d="M 111.546 63 L 111.546 122 L 141.346 122 L 141.746 96.7 C 142.046 73.6 142.246 71.1 144.246 66.8 C 146.846 61.2 150.246 58.7 155.646 58.7 C 164.546 58.7 165.546 62.5 165.546 95.9 L 165.546 122 L 195.646 122 L 195.346 89.2 C 195.046 57.5 194.946 56.3 192.746 51.5 C 187.746 40.7 180.346 35.9 167.746 35.2 C 156.546 34.6 151.246 36.2 145.446 42 L 140.946 46.5 L 141.346 25.3 L 141.846 4 L 111.546 4 L 111.546 63 Z M 384.646 23.2 C 383.746 25.6 382.046 29.6 380.946 32.3 C 379.446 36.1 377.746 37.9 372.346 41.7 L 365.546 46.3 L 365.546 59 L 375.546 59 L 375.546 74.8 C 375.546 106.1 378.146 114.7 389.546 120.6 C 395.246 123.5 412.546 123.8 421.546 121.1 L 428.546 118.9 L 428.546 107.9 C 428.546 96.8 428.546 96.8 426.346 97.4 C 425.046 97.8 421.446 98.6 418.246 99.2 C 412.946 100.1 412.046 100.1 409.746 98.3 L 407.046 96.3 L 406.746 77.6 L 406.546 59 L 427.546 59 L 427.546 36 L 406.546 36 L 406.546 19 L 386.446 19 L 384.646 23.2 Z M 230.046 36.6 C 226.246 37.4 220.946 39.1 218.346 40.3 L 213.546 42.5 L 217.746 52 C 220.046 57.2 222.046 61.7 222.146 61.8 C 222.246 62 225.746 61 229.746 59.6 C 246.746 53.8 253.846 55 256.046 64.2 L 256.746 67 L 250.446 67 C 236.046 67.1 222.746 70 215.346 74.7 C 207.646 79.5 204.146 89.2 205.746 101.2 C 206.646 108.3 209.346 113.7 213.946 117.8 C 218.546 121.8 224.146 123.4 233.746 123.2 C 243.046 123.1 249.946 120.4 255.846 114.5 C 257.846 112.4 259.746 110.9 259.946 111.1 C 260.146 111.3 261.446 113.9 262.946 116.7 L 265.546 122 L 286.546 122 L 286.546 95.2 C 286.446 80.5 286.046 65.5 285.646 61.8 C 284.146 50 278.646 42.2 268.646 37.6 C 262.546 34.9 240.646 34.3 230.046 36.6 Z M 256.546 88.2 C 256.546 93.7 253.546 98.7 249.046 100.6 C 239.546 104.5 233.146 99.4 236.546 90.6 C 238.046 86.7 243.746 84.3 252.346 84.1 L 256.546 84 L 256.546 88.2 Z M 303.346 35.8 L 295.546 36.1 L 295.546 122 L 325.546 122 L 325.546 98.2 C 325.546 70.7 325.946 69.1 333.546 65.2 C 337.346 63.2 339.246 62.9 345.846 63.2 C 350.046 63.4 353.546 63.5 353.546 63.5 C 353.546 63.5 354.246 57.4 355.046 50 C 356.146 39.6 356.146 36.4 355.246 35.7 C 354.546 35.3 350.546 35.1 346.246 35.3 C 339.246 35.6 338.046 36 333.046 39.4 C 330.046 41.5 326.646 44.8 325.446 46.6 C 324.346 48.5 323.046 49.8 322.646 49.6 C 322.246 49.3 321.046 46.3 320.046 42.9 C 319.046 39.6 317.646 36.7 317.146 36.5 C 314.446 35.7 310.446 35.5 303.346 35.8 Z M 460.246 36.1 C 446.446 39.4 438.746 49.2 439.746 62.3 C 440.746 74.2 446.546 80.8 461.546 87.1 C 477.846 93.9 481.646 97.2 476.346 100.1 C 472.746 102 457.246 100.7 448.246 97.6 C 444.046 96.2 440.246 95 440.046 95 C 439.746 95 439.546 100.4 439.546 106.9 L 439.546 118.9 L 445.346 120.5 C 459.246 124.7 482.246 124.1 492.146 119.4 C 498.346 116.5 503.746 110.7 505.346 105.1 C 507.346 98.5 506.846 89.2 504.146 83.3 C 500.946 76.6 495.246 72.4 480.746 66.4 C 468.246 61.2 465.946 59.1 470.046 56.4 C 473.246 54.3 479.846 55 490.446 58.6 C 494.446 60 498.046 60.8 498.346 60.5 C 498.646 60.2 500.546 55.9 502.646 51 L 506.446 42 L 502.746 40.4 C 491.246 35.5 471.246 33.5 460.246 36.1 Z" style="fill: rgb(223, 216, 216);"></path>
  <g style="" transform="matrix(0.724597, 0, 0, 0.74264, 15.412373, 27.127254)">
    <g style="" transform="matrix(0.376104, 0, 0, 0.312102, -54.831047, -9.233508)">
      <path fill="#29AEF6" d="M 315 10 A 210 210 0 0 1 428.4577095607678 43.287385449639004 L 390.6384730405119 102.19159029975934 A 140 140 0 0 0 315 80 Z" stroke="#e6e6e6" stroke-width="1" opacity="1" tabindex="-1" role="img" aria-label="Southern Asia, value: 92. Root." style="outline: none;"></path>
      <path fill="rgb(5,128,195)" d="M 315 80 A 140 140 0 0 1 396.9805483497054 333.48651766743757 L 355.9902741748527 276.74325883371876 A 70 70 0 0 0 315 150 Z" stroke="rgb(230,230,230)" stroke-width="1" opacity="1" tabindex="-1" role="img" aria-label="Asia, value: 405. Root." style="outline: none;"></path>
      <path fill="#29d8cb" d="M 437.8005312910224 390.35266218830463 A 210 210 0 0 1 350.9230522642407 426.90465030061705 L 338.9487015094938 357.9364335337447 A 140 140 0 0 0 396.86702086068163 333.56844145886976 Z" stroke="#e6e6e6" stroke-width="1" opacity="1" tabindex="-1" role="img" aria-label="Eastern Africa, value: 73. Root." style="outline: none;"></path>
      <path fill="#29d8cb" d="M 350.7161296868996 426.9404698945776 A 210 210 0 0 1 285.93853388102923 427.9794008718554 L 295.62568925401945 358.6529339145702 A 140 140 0 0 0 338.8107531245997 357.9603132630517 Z" stroke="#e6e6e6" stroke-width="1" opacity="1" tabindex="-1" role="img" aria-label="Western Africa, value: 50. Root." style="outline: none;"></path>
      <path fill="rgb(41,216,203)" d="M 285.73056904555244 427.9502354208882 A 210 210 0 0 1 197.7256021981163 394.2030872866653 L 236.8170681320775 336.13539152444355 A 140 140 0 0 0 295.4870460303683 358.6334902805921 Z" stroke="rgb(230,230,230)" stroke-width="1" opacity="1" tabindex="-1" role="img" aria-label="North Africa, value: 73. Root." style="outline: none;"></path>
      <path fill="#29d8cb" d="M 197.5514577770575 394.0857258068728 A 210 210 0 0 1 185.071927802556 384.98089603058827 L 228.38128520170397 329.98726402039216 A 140 140 0 0 0 236.70097185137166 336.05715053791516 Z" stroke="#e6e6e6" stroke-width="1" opacity="1" tabindex="-1" role="img" aria-label="Central Africa, value: 12. Root." style="outline: none;"></path>
      <path fill="#29d8cb" d="M 184.9070118980529 384.85088548960437 A 210 210 0 0 1 169.3355373570275 371.2675256720162 L 217.89035823801834 320.84501711467743 A 140 140 0 0 0 228.27134126536862 329.90059032640295 Z" stroke="#e6e6e6" stroke-width="1" opacity="1" tabindex="-1" role="img" aria-label="South Africa, value: 16. Root." style="outline: none;"></path>
      <path fill="rgb(8,162,150)" d="M 396.86702086068163 333.56844145886976 A 140 140 0 0 1 217.89035823801834 320.84501711467743 L 266.44517911900914 270.4225085573387 A 70 70 0 0 0 355.9335104303408 276.7842207294349 Z" stroke="rgb(230,230,230)" stroke-width="1" opacity="1" tabindex="-1" role="img" aria-label="Africa, value: 224. Root." style="outline: none;"></path>
      <path fill="#B2E937" d="M 169.18434268879201 371.1217855998941 A 210 210 0 0 1 155.88692456788664 357.0511919923888 L 208.9246163785911 311.3674613282592 A 140 140 0 0 0 217.789561792528 320.74785706659605 Z" stroke="#e6e6e6" stroke-width="1" opacity="1" tabindex="-1" role="img" aria-label="South America, value: 15. Root." style="outline: none;"></path>
      <path fill="#B2E937" d="M 155.74995295526722 356.8920104178852 A 210 210 0 0 1 107.8225265941405 254.3146399247374 L 176.88168439609368 242.8764266164916 A 140 140 0 0 0 208.83330197017813 311.2613402785902 Z" stroke="#e6e6e6" stroke-width="1" opacity="1" tabindex="-1" role="img" aria-label="Northern America, value: 88. Root." style="outline: none;"></path>
      <path fill="#B2E937" d="M 107.78831554866295 254.1074453285426 A 210 210 0 0 1 126.00929267946839 128.443937685781 L 189.00619511964558 158.962625123854 A 140 140 0 0 0 176.85887703244197 242.7382968856951 Z" stroke="#e6e6e6" stroke-width="1" opacity="1" tabindex="-1" role="img" aria-label="Central America, value: 99. Root." style="outline: none;"></path>
      <path fill="#91C222" d="M 217.789561792528 320.74785706659605 A 140 140 0 0 1 189.0061951196456 158.96262512385394 L 252.0030975598228 189.48131256192698 A 70 70 0 0 0 266.394780896264 270.373928533298 Z" stroke="#e6e6e6" stroke-width="1" opacity="1" tabindex="-1" role="img" aria-label="America, value: 202. Root." style="outline: none;"></path>
      <path fill="#FFBB43" d="M 126.10094322186904 128.2549927879862 A 210 210 0 0 1 137.4113272195173 107.91849706545405 L 196.6075514796782 145.27899804363602 A 140 140 0 0 0 189.06729548124605 158.83666185865746 Z" stroke="#e6e6e6" stroke-width="1" opacity="1" tabindex="-1" role="img" aria-label="Eastern Europe, value: 18. Root." style="outline: none;"></path>
      <path fill="#FFBB43" d="M 137.52349749810057 107.74096446301847 A 210 210 0 0 1 163.0551609443754 75.04219274437014 L 213.70344062958358 123.36146182958011 A 140 140 0 0 0 196.68233166540037 145.16064297534564 Z" stroke="#e6e6e6" stroke-width="1" opacity="1" tabindex="-1" role="img" aria-label="Northern Europe, value: 32. Root." style="outline: none;"></path>
      <path fill="#FFBB43" d="M 163.20019469988458 74.89032040953626 A 210 210 0 0 1 241.95780938185294 23.112117209559415 L 266.3052062545686 88.74141147303962 A 140 140 0 0 0 213.80012979992304 123.26021360635751 Z" stroke="#e6e6e6" stroke-width="1" opacity="1" tabindex="-1" role="img" aria-label="Southern Europe, value: 73. Root." style="outline: none;"></path>
      <path fill="#FFBB43" d="M 242.15473375292106 23.03917347504813 A 210 210 0 0 1 288.7565393613271 11.6462604758282 L 297.5043595742181 81.09750698388547 A 140 140 0 0 0 266.436489168614 88.69278231669875 Z" stroke="#e6e6e6" stroke-width="1" opacity="1" tabindex="-1" role="img" aria-label="Western Europe, value: 37. Root." style="outline: none;"></path>
      <path fill="rgb(254,159,1)" d="M 189.06729548124605 158.83666185865746 A 140 140 0 0 1 297.5043595742181 81.09750698388547 L 306.252179787109 150.54875349194273 A 70 70 0 0 0 252.03364774062302 189.41833092932873 Z" stroke="rgb(230,230,230)" stroke-width="1" opacity="1" tabindex="-1" role="img" aria-label="Europe, value: 160. Root." style="outline: none;"></path>
      <path fill="#FD6A4C" d="M 288.9649061878549 11.62012119642452 A 210 210 0 0 1 314.7900000349997 10.000104999991237 L 314.86000002333316 80.00006999999417 A 140 140 0 0 0 297.6432707919033 81.08008079761635 Z" stroke="#e6e6e6" stroke-width="1" opacity="1" tabindex="-1" role="img" aria-label="Australia, value: 20. Root." style="outline: none;"></path>
      <path fill="rgb(228,39,1)" d="M 297.6432707919033 81.08008079761635 A 140 140 0 0 1 314.86000002333316 80.00006999999417 L 314.93000001166655 150.00003499999707 A 70 70 0 0 0 306.32163539595166 150.54004039880817 Z" stroke="rgb(230,230,230)" stroke-width="1" opacity="1" tabindex="-1" role="img" aria-label="Oceanic, value: 20. Root." style="outline: none;"></path>
      <path fill="rgb(255,255,255)" d="M 315 150 A 70 70 0 1 1 314.9300000116666 150.00003499999707 M 315 220 A 0 0 0 1 0 315 220" stroke="rgb(230,230,230)" stroke-width="1" opacity="1" tabindex="-1" role="img" aria-label="The World, value: 1,011. Root." style="outline: none;"></path>
    </g>
  </g>
</svg>