<svg version="1.0" viewBox="-9.764 8.239 402 369" xmlns="http://www.w3.org/2000/svg">
  <defs>
    <radialGradient gradientUnits="userSpaceOnUse" cx="78.917" cy="266.16" r="381.047" id="gradient-5" gradientTransform="matrix(0.498195, 0.131597, -0.255388, 0.966839, 107.600474, -1.523007)">
      <stop offset="0" style="stop-color: rgb(17, 179, 218);"></stop>
      <stop offset="1" style="stop-color: rgb(57, 94, 118);"></stop>
    </radialGradient>
    <radialGradient gradientUnits="userSpaceOnUse" cx="30.395" cy="105.356" r="104.5" id="gradient-1" gradientTransform="matrix(-1.212511, -0.424497, 0.315538, -0.901286, 331.219471, 205.129866)">
      <stop offset="0" style="stop-color: rgb(17, 179, 218);"></stop>
      <stop offset="1" style="stop-color: rgb(57, 94, 118);"></stop>
    </radialGradient>
    <radialGradient gradientUnits="userSpaceOnUse" cx="335.637" cy="130.156" r="38.585" id="gradient-0" gradientTransform="matrix(-0.007173, 0.538417, -1.028244, -0.013699, 449.755777, -38.369873)">
      <stop offset="0" style="stop-color: rgb(64.706% 3.9216% 40.392%)"></stop>
      <stop offset="1" style="stop-color: rgb(44.194% 0% 25.735%)"></stop>
    </radialGradient>
    <radialGradient gradientUnits="userSpaceOnUse" cx="293.755" cy="262.716" r="38.25" id="gradient-2" gradientTransform="matrix(2.541474, -1.570287, 0.525627, 0.850715, -594.409762, 503.250941)">
      <stop offset="0" style="stop-color: rgb(44.314% 0% 25.882%)"></stop>
      <stop offset="1" style="stop-color: rgb(32.115% 0% 17.248%)"></stop>
    </radialGradient>
    <linearGradient gradientUnits="userSpaceOnUse" x1="103.626" y1="32.979" x2="103.626" y2="256.979" id="gradient-3" gradientTransform="matrix(0.996778, 0.080213, -0.08364, 1.03936, 21.827675, -18.371482)">
      <stop offset="0" style="stop-color: rgb(44.314% 0% 25.882%)"></stop>
      <stop offset="1" style="stop-color: rgb(165, 10, 103);"></stop>
    </linearGradient>
  </defs>
  <path d="M 273.026 256.034 L 274.426 332.034 L 311.626 294.834 L 348.826 257.534 L 349.226 235.034 L 349.526 212.534 L 341.526 211.834 C 337.126 211.434 320.526 211.234 304.726 211.234 C 280.826 211.234 275.726 211.534 274.526 212.734 C 273.326 213.934 273.026 218.034 273.026 235.134 L 273.026 256.034 Z" style="paint-order: stroke; fill-rule: evenodd; fill: rgb(58, 54, 56);"></path>
  <path d="M 349.526 108.434 L 272.726 109.034 L 273.426 115.234 C 273.726 118.634 273.726 126.234 273.426 132.234 C 272.926 140.234 273.026 143.334 274.026 144.534 C 275.826 146.734 347.126 146.834 348.926 144.634 C 349.826 143.634 350.026 138.134 349.826 125.834 L 349.526 108.434 Z" style="paint-order: stroke; fill-rule: evenodd; fill: rgb(58, 54, 56);"></path>
  <path d="M 140.526 33.034 L 142.026 109.034 L 272.726 109.034 L 349.526 108.434 L 312.126 71.434 C 291.626 51.134 273.826 34.234 272.626 33.834 C 271.526 33.534 241.326 33.234 205.526 33.134 L 140.526 33.034 Z" style="paint-order: stroke; fill-rule: evenodd; fill: rgb(197, 197, 197);"></path>
  <path d="M 102.726 70.834 L 65.026 108.634 L 65.226 182.834 L 65.526 257.034 L 142.226 256.034 L 141.526 219.734 C 141.126 199.834 141.026 180.834 141.326 177.534 C 141.726 174.234 141.926 157.434 142.026 140.234 L 142.026 109.034 L 140.526 33.034 L 102.726 70.834 Z" style="paint-order: stroke; fill-rule: evenodd; fill: rgb(58, 54, 56);"></path>
  <path d="M 142.226 256.034 L 65.526 257.034 L 101.526 293.034 C 121.326 312.834 138.926 329.734 140.726 330.534 C 143.426 331.834 152.826 332.034 209.126 332.034 L 274.426 332.034 L 273.026 256.034 L 142.226 256.034 Z" style="paint-order: stroke; fill-rule: evenodd; fill: rgb(197, 197, 197);"></path>
</svg>