<svg version="1.0" viewBox="0 0 976 182" xmlns="http://www.w3.org/2000/svg">
  <defs>
    <radialGradient gradientUnits="userSpaceOnUse" cx="57.085" cy="112.118" r="75.792" id="gradient-1" gradientTransform="matrix(1.649578, -1.24205, 0.601507, 0.798868, -102.882184, 103.091095)">
      <stop offset="0" style="stop-color: rgb(17.647% 87.059% 19.608%)"></stop>
      <stop offset="1" style="stop-color: rgb(0% 51.551% 0%)"></stop>
    </radialGradient>
    <linearGradient gradientUnits="userSpaceOnUse" x1="567.208" y1="27.559" x2="567.208" y2="154.759" id="gradient-0">
      <stop offset="0" style="stop-color: rgb(0, 131, 0);"></stop>
      <stop offset="1" style="stop-color: rgb(0, 131, 0);"></stop>
    </linearGradient>
    <linearGradient gradientUnits="userSpaceOnUse" x1="794.146" y1="81" x2="794.146" y2="154" id="gradient-2">
      <stop offset="0" style="stop-color: rgb(77.647% 76.078% 76.078%)"></stop>
      <stop offset="1" style="stop-color: rgb(45.031% 43.617% 43.618%)"></stop>
    </linearGradient>
    <radialGradient gradientUnits="userSpaceOnUse" cx="794.146" cy="117.5" r="77" id="gradient-3">
      <stop offset="0" style="stop-color: rgb(0, 131, 0);"></stop>
      <stop offset="1" style="stop-color: rgb(0, 131, 0);"></stop>
    </radialGradient>
  </defs>
  <path d="M 363.605 39.459 L 363.605 51.459 L 367.705 51.459 C 373.605 51.459 383.105 54.159 387.905 57.159 C 398.805 63.959 404.605 75.959 404.605 91.459 C 404.605 116.559 389.405 131.659 364.105 131.659 C 342.805 131.659 328.605 119.759 325.405 99.159 L 324.205 91.459 L 299.805 91.459 L 300.305 96.159 C 301.905 114.259 306.805 125.659 317.605 136.559 C 330.205 149.359 344.205 154.759 364.605 154.759 C 384.905 154.659 399.905 149.159 411.705 137.459 C 423.705 125.659 428.805 111.759 428.905 91.459 C 428.905 72.059 424.205 59.259 412.505 46.959 C 401.605 35.559 388.305 29.559 370.405 28.059 L 363.605 27.559 L 363.605 39.459 Z M 200.605 91.459 L 200.605 153.459 L 224.605 153.459 L 224.605 103.459 L 285.605 103.459 L 285.605 81.459 L 224.605 81.459 L 224.605 53.459 L 291.605 53.459 L 291.605 29.459 L 200.605 29.459 L 200.605 91.459 Z M 446.605 40.459 L 446.605 51.459 L 475.005 51.459 C 493.505 51.459 504.505 51.859 506.705 52.559 C 516.505 55.859 521.305 67.159 517.105 77.159 C 515.105 81.959 513.005 84.159 508.105 86.859 C 504.305 88.859 502.505 88.959 475.405 89.259 L 446.605 89.559 L 446.605 153.459 L 471.605 153.459 L 471.605 109.459 L 498.205 109.459 L 509.705 131.159 L 521.205 152.959 L 534.905 153.259 C 542.405 153.359 548.605 153.259 548.605 152.959 C 548.605 152.659 542.305 141.959 534.505 129.159 L 520.405 106.059 L 524.205 102.959 C 536.905 93.059 542.505 80.459 541.305 64.959 C 539.905 45.959 528.705 33.959 509.505 30.559 C 505.605 29.959 491.305 29.459 474.805 29.459 L 446.605 29.459 L 446.605 40.459 Z M 564.305 36.659 C 566.505 40.659 579.405 65.059 593.105 90.759 L 618.005 137.559 L 626.505 137.259 L 635.005 136.959 L 652.605 105.759 L 670.105 74.559 L 670.405 113.959 L 670.605 153.459 L 694.605 153.459 L 694.605 29.459 L 670.105 29.459 L 649.105 68.459 C 637.605 89.859 627.805 107.459 627.505 107.459 C 627.205 107.459 617.505 89.959 606.005 68.459 L 585.105 29.459 L 560.405 29.459 L 564.305 36.659 Z M 716.605 41.459 L 716.605 53.459 L 808.605 53.459 L 808.605 29.459 L 716.605 29.459 L 716.605 41.459 Z M 828.605 41.359 L 828.605 53.359 L 856.905 53.659 C 884.905 53.959 885.105 53.959 890.705 56.559 C 900.705 61.259 905.705 69.059 907.805 83.259 C 910.305 100.359 905.405 116.859 895.905 123.159 C 887.705 128.559 881.905 129.459 853.705 129.459 L 828.605 129.459 L 828.605 153.459 L 857.405 153.459 C 889.305 153.459 895.705 152.659 906.205 147.459 C 915.505 142.859 924.505 132.859 928.405 122.759 C 932.805 111.359 933.905 104.459 933.805 90.459 C 933.705 68.959 928.605 54.559 917.205 43.659 C 909.705 36.459 901.105 32.059 891.605 30.559 C 888.005 29.959 872.405 29.459 856.905 29.459 L 828.605 29.459 L 828.605 41.359 Z M 561.305 65.159 C 560.905 65.459 560.605 85.559 560.605 109.659 L 560.605 153.459 L 584.605 153.459 L 584.605 104.159 L 574.005 84.259 C 568.205 73.359 563.105 64.459 562.705 64.459 C 562.305 64.459 561.605 64.759 561.305 65.159 Z" style="fill: url(#gradient-0);"></path>
  <path d="M 717.146 92 L 717.146 103 L 871.146 103 L 871.146 81 L 717.146 81 L 717.146 92 Z M 717.146 142 L 717.146 154 L 809.146 154 L 809.146 130 L 717.146 130 L 717.146 142 Z" style="fill: url(#gradient-3);"></path>
  <path d="M 65.749 44.094 C 25.349 84.594 24.049 85.994 24.049 89.694 C 24.049 93.294 24.949 94.494 38.349 107.994 C 46.149 115.994 53.749 123.094 55.249 123.894 C 57.349 124.994 63.449 125.294 83.149 125.294 L 108.449 125.294 L 96.249 137.594 C 89.449 144.494 84.049 150.794 84.049 151.794 C 84.049 154.394 106.049 176.294 108.649 176.294 C 109.949 176.294 125.249 161.594 151.849 134.994 C 197.649 89.094 163.749 56.494 160.749 55.394 C 157.549 54.194 111.049 53.894 111.049 54.994 C 111.049 55.394 118.549 63.294 127.749 72.494 L 144.449 89.394 L 127.049 106.794 C 117.449 116.394 109.149 124.294 108.549 124.294 C 107.249 124.294 74.049 91.094 74.049 89.794 C 74.049 89.294 134.549 28.294 134.549 28.294 L 121.549 15.294 C 114.449 8.194 108.349 2.294 108.049 2.294 C 107.749 2.294 88.749 21.094 65.749 44.094 Z" style="fill: url(#gradient-1); paint-order: fill;"></path>
</svg>