<svg xmlns="http://www.w3.org/2000/svg" version="1.0" viewBox="0 0 976 182"><path d="M71.7 46.8C31.3 87.3 30 88.7 30 92.4c0 3.6.9 4.8 14.3 18.3 7.8 8 15.4 15.1 16.9 15.9 2.1 1.1 8.2 1.4 27.9 1.4h25.3l-12.2 12.3c-6.8 6.9-12.2 13.2-12.2 14.2 0 2.6 22 24.5 24.6 24.5 1.3 0 16.6-14.7 43.2-41.3 45.8-45.9 44-43.6 38.3-51.3-4.7-6.3-26.4-27.2-29.4-28.3-3.2-1.2-49.7-1.5-49.7-.4 0 .4 7.5 8.3 16.7 17.5l16.7 16.9-17.4 17.4c-9.6 9.6-17.9 17.5-18.5 17.5-1.3 0-34.5-33.2-34.5-34.5 0-.5 13.6-14.6 30.2-31.2L140.5 31l-13-13c-7.1-7.1-13.2-13-13.5-13-.3 0-19.3 18.8-42.3 41.8zM382 40v12h4.1c5.9 0 15.4 2.7 20.2 5.7C417.2 64.5 423 76.5 423 92c0 25.1-15.2 40.2-40.5 40.2-21.3 0-35.5-11.9-38.7-32.5l-1.2-7.7h-24.4l.5 4.7c1.6 18.1 6.5 29.5 17.3 40.4 12.6 12.8 26.6 18.2 47 18.2 20.3-.1 35.3-5.6 47.1-17.3 12-11.8 17.1-25.7 17.2-46 0-19.4-4.7-32.2-16.4-44.5-10.9-11.4-24.2-17.4-42.1-18.9l-6.8-.5V40zM219 92v62h24v-50h61V82h-61V54h67V30h-91v62zm246-51v11h28.4c18.5 0 29.5.4 31.7 1.1 9.8 3.3 14.6 14.6 10.4 24.6-2 4.8-4.1 7-9 9.7-3.8 2-5.6 2.1-32.7 2.4l-28.8.3V154h25v-44h26.6l11.5 21.7 11.5 21.8 13.7.3c7.5.1 13.7 0 13.7-.3s-6.3-11-14.1-23.8l-14.1-23.1 3.8-3.1c12.7-9.9 18.3-22.5 17.1-38-1.4-19-12.6-31-31.8-34.4-3.9-.6-18.2-1.1-34.7-1.1H465v11zm117.7-3.8c2.2 4 15.1 28.4 28.8 54.1l24.9 46.8 8.5-.3 8.5-.3 17.6-31.2 17.5-31.2.3 39.4.2 39.5h24V30h-24.5l-21 39c-11.5 21.4-21.3 39-21.6 39-.3 0-10-17.5-21.5-39l-20.9-39h-24.7l3.9 7.2zM735 42v12h92V30h-92v12zm112-.1v12l28.3.3c28 .3 28.2.3 33.8 2.9 10 4.7 15 12.5 17.1 26.7 2.5 17.1-2.4 33.6-11.9 39.9-8.2 5.4-14 6.3-42.2 6.3H847v24h28.8c31.9 0 38.3-.8 48.8-6 9.3-4.6 18.3-14.6 22.2-24.7 4.4-11.4 5.5-18.3 5.4-32.3-.1-21.5-5.2-35.9-16.6-46.8-7.5-7.2-16.1-11.6-25.6-13.1-3.6-.6-19.2-1.1-34.7-1.1H847v11.9zM579.7 65.7c-.4.3-.7 20.4-.7 44.5V154h24v-49.3l-10.6-19.9C586.6 73.9 581.5 65 581.1 65c-.4 0-1.1.3-1.4.7z"/><path d="M735 92v11h154V81H735v11zm0 50v12h92v-24h-92v12z"/></svg>