<svg xmlns="http://www.w3.org/2000/svg" width="947" height="192" viewBox="0 0 947 192" version="1.1"><path d="M 52.500 52.704 L 11.500 93.090 52.500 133.394 L 93.500 173.697 93.770 151.628 L 94.039 129.559 75.780 111.280 L 57.520 93 75.780 74.720 L 94.039 56.441 93.770 34.379 L 93.500 12.318 52.500 52.704 M 99 34.128 L 99 56.645 117.580 74.483 L 136.160 92.321 117.560 110.940 L 98.961 129.559 99.230 151.676 L 99.500 173.794 140.717 133.320 L 181.933 92.846 151.717 63.192 C 135.097 46.881, 116.438 28.603, 110.250 22.574 L 99 11.611 99 34.128 M 553 51.530 L 553 62.060 565.750 61.780 L 578.500 61.500 578.785 51.250 L 579.070 41 566.035 41 L 553 41 553 51.530 M 201 93.029 L 201 144.058 214.250 143.779 L 227.500 143.500 227.771 123.250 L 228.041 103 245.521 103 L 263 103 263 123.500 L 263 144 276.500 144 L 290 144 290 93 L 290 42 276.500 42 L 263 42 263 62 L 263 82 245.500 82 L 228 82 228 62 L 228 42 214.500 42 L 201 42 201 93.029 M 318.692 66.384 C 312.751 68.035, 307.617 72.833, 305.262 78.934 C 303.763 82.820, 303.500 86.928, 303.500 106.500 C 303.500 128.138, 303.627 129.737, 305.653 133.500 C 308.355 138.521, 311.492 141.472, 316.232 143.452 C 320.711 145.324, 342.378 145.414, 362.500 143.644 L 375.500 142.500 375.789 133.111 L 376.079 123.722 365.789 124.351 C 329.359 126.580, 330.478 126.721, 329.346 119.747 L 328.738 116 353.949 116 L 379.159 116 378.829 97.583 L 378.500 79.166 375.456 74.833 C 373.781 72.450, 370.406 69.375, 367.956 68 C 363.663 65.591, 362.769 65.492, 343.500 65.273 C 329.254 65.112, 322.117 65.432, 318.692 66.384 M 433.251 66.545 C 428.030 67.951, 422.521 70.549, 418.278 73.606 C 416.100 75.175, 416.044 75.126, 415.401 71.103 L 414.744 67 403.372 67 L 392 67 392 105.530 L 392 144.060 404.750 143.780 L 417.500 143.500 417.767 117.838 L 418.033 92.177 422.767 90.557 C 425.370 89.666, 432.337 88.657, 438.250 88.316 L 449 87.694 449 76.347 L 449 65 443.750 65.066 C 440.863 65.102, 436.138 65.768, 433.251 66.545 M 470.500 65.888 C 462.732 67.901, 456.884 73.157, 455.044 79.781 C 454.472 81.842, 454.018 93.533, 454.028 106 C 454.042 125.606, 454.278 129.016, 455.865 132.509 C 458.155 137.550, 463.807 142.575, 468.723 143.940 C 470.830 144.525, 482.256 144.991, 494.571 144.994 L 516.641 145 522.070 142.250 C 527.847 139.323, 531.305 135.163, 532.984 129.118 C 533.537 127.128, 533.991 116.243, 533.994 104.928 C 534.001 81.890, 533.191 77.621, 527.766 72.072 C 521.581 65.746, 520.717 65.562, 496 65.326 C 483.625 65.208, 472.150 65.461, 470.500 65.888 M 685.704 66.425 C 679.921 67.980, 675.461 71.939, 672.663 78 C 670.864 81.897, 670.533 84.920, 670.187 100.571 C 669.541 129.819, 671.809 137.675, 682.314 142.566 C 687.324 144.898, 688.283 144.980, 710.500 144.980 C 732.717 144.980, 733.676 144.898, 738.686 142.566 C 749.201 137.670, 751.361 130.369, 750.822 101.544 C 750.510 84.887, 750.206 81.936, 748.399 78 C 745.547 71.786, 740.306 67.446, 734.030 66.100 C 726.848 64.560, 691.763 64.795, 685.704 66.425 M 803.585 66.598 C 800.332 67.385, 795.269 69.329, 792.335 70.918 C 787.564 73.502, 787 73.615, 787 71.986 C 787 67.235, 786.407 67, 774.393 67 L 763 67 763 105.500 L 763 144 776 144 L 789 144 789 116.673 L 789 89.346 795.365 88.173 C 798.866 87.528, 804.241 87, 807.309 87 C 816.110 87, 816 86.610, 816 117.723 L 816 144 829 144 L 842 144 842 114.659 C 842 83.373, 841.513 79.338, 836.969 72.957 C 833.387 67.927, 825.969 65.005, 817 65.093 C 812.875 65.134, 806.838 65.811, 803.585 66.598 M 605.843 67.975 C 598.996 70.043, 593.958 75.172, 591.973 82.095 C 591.438 83.961, 591.004 95.165, 591.010 106.993 C 591.019 127.621, 591.118 128.712, 593.434 133.686 C 595.105 137.274, 597.157 139.738, 600.098 141.686 C 604.187 144.393, 604.883 144.510, 618.424 144.774 C 626.166 144.924, 638.800 144.474, 646.500 143.774 L 660.500 142.500 660.788 132.604 L 661.076 122.707 655.020 123.340 C 640.387 124.870, 621.387 125.277, 619.204 124.109 C 617.073 122.969, 617 122.400, 617 106.899 C 617 97.761, 617.445 90.037, 618.035 88.934 C 619.008 87.116, 620.331 87, 640.035 87 L 661 87 661 77 L 661 67 634.750 67.086 C 620.313 67.133, 607.304 67.533, 605.843 67.975 M 861.459 68.880 C 852.711 72.853, 849.573 79.698, 850.177 93.495 C 850.630 103.853, 852.383 107.668, 858.671 111.976 C 863.381 115.204, 868.251 115.907, 886.250 115.956 L 902 116 902 119.378 C 902 125.092, 900.885 125.390, 882.210 124.650 C 873.019 124.286, 862.237 123.700, 858.250 123.349 L 851 122.710 851 132.336 C 851 141.507, 851.106 141.985, 853.250 142.450 C 858.177 143.517, 884.428 144.999, 898.057 144.978 C 909.955 144.960, 913.205 144.631, 916.500 143.110 C 924.939 139.215, 928.010 133.108, 927.978 120.282 C 927.952 109.987, 926.188 105.128, 920.736 100.341 C 915.903 96.098, 909.988 95, 891.970 95 L 877.038 95 876.372 92.345 C 874.961 86.724, 875.708 86.525, 899.358 86.230 L 921 85.961 921 76.480 L 921 67 893.250 67.022 C 868.491 67.042, 865.064 67.242, 861.459 68.880 M 542 79.477 L 542 90 547.500 90 L 553 90 553 117 L 553 144 566.012 144 L 579.024 144 578.762 106.750 L 578.500 69.500 560.250 69.227 L 542 68.955 542 79.477 M 330.972 85.533 C 330.273 86.376, 329.485 89.301, 329.223 92.033 L 328.746 97 340.873 97 L 353 97 353 91.700 C 353 88.785, 352.460 85.860, 351.800 85.200 C 349.911 83.311, 332.586 83.589, 330.972 85.533 M 483 85.685 C 482.175 86.023, 481.169 86.795, 480.765 87.400 C 479.465 89.347, 479.860 122.460, 481.200 123.800 C 483.138 125.738, 504.432 125.425, 506.429 123.429 C 508.624 121.233, 508.755 90.417, 506.582 87.441 C 505.357 85.764, 503.759 85.471, 494.832 85.285 C 489.150 85.167, 483.825 85.347, 483 85.685 M 699.392 85.934 C 696.575 87.132, 695.997 90.630, 696.015 106.375 C 696.024 114.945, 696.468 120.368, 697.294 122 C 698.537 124.456, 698.767 124.500, 710.500 124.500 C 722.223 124.500, 722.465 124.454, 723.742 122 C 725.540 118.545, 725.082 88.676, 723.202 86.797 C 721.652 85.248, 702.628 84.558, 699.392 85.934" stroke="none" fill="#787fd8" fill-rule="evenodd"/></svg>