<svg width="947" height="192" viewBox="0 0 947 192" version="1.1" xmlns="http://www.w3.org/2000/svg">
  <defs></defs>
  <path d="M 553 51.53 L 553 62.06 L 565.75 61.78 L 578.5 61.5 L 578.785 51.25 L 579.07 41 L 566.035 41 L 553 41 L 553 51.53 M 201 93.029 L 201 144.058 L 214.25 143.779 L 227.5 143.5 L 227.771 123.25 L 228.041 103 L 245.521 103 L 263 103 L 263 123.5 L 263 144 L 276.5 144 L 290 144 L 290 93 L 290 42 L 276.5 42 L 263 42 L 263 62 L 263 82 L 245.5 82 L 228 82 L 228 62 L 228 42 L 214.5 42 L 201 42 L 201 93.029 M 318.692 66.384 C 312.751 68.035 307.617 72.833 305.262 78.934 C 303.763 82.82 303.5 86.928 303.5 106.5 C 303.5 128.138 303.627 129.737 305.653 133.5 C 308.355 138.521 311.492 141.472 316.232 143.452 C 320.711 145.324 342.378 145.414 362.5 143.644 L 375.5 142.5 L 375.789 133.111 L 376.079 123.722 L 365.789 124.351 C 329.359 126.58 330.478 126.721 329.346 119.747 L 328.738 116 L 353.949 116 L 379.159 116 L 378.829 97.583 L 378.5 79.166 L 375.456 74.833 C 373.781 72.45 370.406 69.375 367.956 68 C 363.663 65.591 362.769 65.492 343.5 65.273 C 329.254 65.112 322.117 65.432 318.692 66.384 M 433.251 66.545 C 428.03 67.951 422.521 70.549 418.278 73.606 C 416.1 75.175 416.044 75.126 415.401 71.103 L 414.744 67 L 403.372 67 L 392 67 L 392 105.53 L 392 144.06 L 404.75 143.78 L 417.5 143.5 L 417.767 117.838 L 418.033 92.177 L 422.767 90.557 C 425.37 89.666 432.337 88.657 438.25 88.316 L 449 87.694 L 449 76.347 L 449 65 L 443.75 65.066 C 440.863 65.102 436.138 65.768 433.251 66.545 M 470.5 65.888 C 462.732 67.901 456.884 73.157 455.044 79.781 C 454.472 81.842 454.018 93.533 454.028 106 C 454.042 125.606 454.278 129.016 455.865 132.509 C 458.155 137.55 463.807 142.575 468.723 143.94 C 470.83 144.525 482.256 144.991 494.571 144.994 L 516.641 145 L 522.07 142.25 C 527.847 139.323 531.305 135.163 532.984 129.118 C 533.537 127.128 533.991 116.243 533.994 104.928 C 534.001 81.89 533.191 77.621 527.766 72.072 C 521.581 65.746 520.717 65.562 496 65.326 C 483.625 65.208 472.15 65.461 470.5 65.888 M 685.704 66.425 C 679.921 67.98 675.461 71.939 672.663 78 C 670.864 81.897 670.533 84.92 670.187 100.571 C 669.541 129.819 671.809 137.675 682.314 142.566 C 687.324 144.898 688.283 144.98 710.5 144.98 C 732.717 144.98 733.676 144.898 738.686 142.566 C 749.201 137.67 751.361 130.369 750.822 101.544 C 750.51 84.887 750.206 81.936 748.399 78 C 745.547 71.786 740.306 67.446 734.03 66.1 C 726.848 64.56 691.763 64.795 685.704 66.425 M 803.585 66.598 C 800.332 67.385 795.269 69.329 792.335 70.918 C 787.564 73.502 787 73.615 787 71.986 C 787 67.235 786.407 67 774.393 67 L 763 67 L 763 105.5 L 763 144 L 776 144 L 789 144 L 789 116.673 L 789 89.346 L 795.365 88.173 C 798.866 87.528 804.241 87 807.309 87 C 816.11 87 816 86.61 816 117.723 L 816 144 L 829 144 L 842 144 L 842 114.659 C 842 83.373 841.513 79.338 836.969 72.957 C 833.387 67.927 825.969 65.005 817 65.093 C 812.875 65.134 806.838 65.811 803.585 66.598 M 605.843 67.975 C 598.996 70.043 593.958 75.172 591.973 82.095 C 591.438 83.961 591.004 95.165 591.01 106.993 C 591.019 127.621 591.118 128.712 593.434 133.686 C 595.105 137.274 597.157 139.738 600.098 141.686 C 604.187 144.393 604.883 144.51 618.424 144.774 C 626.166 144.924 638.8 144.474 646.5 143.774 L 660.5 142.5 L 660.788 132.604 L 661.076 122.707 L 655.02 123.34 C 640.387 124.87 621.387 125.277 619.204 124.109 C 617.073 122.969 617 122.4 617 106.899 C 617 97.761 617.445 90.037 618.035 88.934 C 619.008 87.116 620.331 87 640.035 87 L 661 87 L 661 77 L 661 67 L 634.75 67.086 C 620.313 67.133 607.304 67.533 605.843 67.975 M 861.459 68.88 C 852.711 72.853 849.573 79.698 850.177 93.495 C 850.63 103.853 852.383 107.668 858.671 111.976 C 863.381 115.204 868.251 115.907 886.25 115.956 L 902 116 L 902 119.378 C 902 125.092 900.885 125.39 882.21 124.65 C 873.019 124.286 862.237 123.7 858.25 123.349 L 851 122.71 L 851 132.336 C 851 141.507 851.106 141.985 853.25 142.45 C 858.177 143.517 884.428 144.999 898.057 144.978 C 909.955 144.96 913.205 144.631 916.5 143.11 C 924.939 139.215 928.01 133.108 927.978 120.282 C 927.952 109.987 926.188 105.128 920.736 100.341 C 915.903 96.098 909.988 95 891.97 95 L 877.038 95 L 876.372 92.345 C 874.961 86.724 875.708 86.525 899.358 86.23 L 921 85.961 L 921 76.48 L 921 67 L 893.25 67.022 C 868.491 67.042 865.064 67.242 861.459 68.88 M 542 79.477 L 542 90 L 547.5 90 L 553 90 L 553 117 L 553 144 L 566.012 144 L 579.024 144 L 578.762 106.75 L 578.5 69.5 L 560.25 69.227 L 542 68.955 L 542 79.477 M 330.972 85.533 C 330.273 86.376 329.485 89.301 329.223 92.033 L 328.746 97 L 340.873 97 L 353 97 L 353 91.7 C 353 88.785 352.46 85.86 351.8 85.2 C 349.911 83.311 332.586 83.589 330.972 85.533 M 483 85.685 C 482.175 86.023 481.169 86.795 480.765 87.4 C 479.465 89.347 479.86 122.46 481.2 123.8 C 483.138 125.738 504.432 125.425 506.429 123.429 C 508.624 121.233 508.755 90.417 506.582 87.441 C 505.357 85.764 503.759 85.471 494.832 85.285 C 489.15 85.167 483.825 85.347 483 85.685 M 699.392 85.934 C 696.575 87.132 695.997 90.63 696.015 106.375 C 696.024 114.945 696.468 120.368 697.294 122 C 698.537 124.456 698.767 124.5 710.5 124.5 C 722.223 124.5 722.465 124.454 723.742 122 C 725.54 118.545 725.082 88.676 723.202 86.797 C 721.652 85.248 702.628 84.558 699.392 85.934" stroke="none" fill-rule="evenodd" style="fill: rgb(230, 230, 230);"></path>
  <path d="M 51.011 56.067 L 10.011 96.453 L 51.011 136.757 L 92.011 177.06 L 92.281 154.991 L 92.55 132.922 L 74.291 114.643 L 56.031 96.363 L 74.291 78.083 L 92.55 59.804 L 92.281 37.742 L 92.011 15.681 L 51.011 56.067 M 97.511 37.491 L 97.511 60.008 L 116.091 77.846 L 134.671 95.684 L 116.071 114.303 L 97.472 132.922 L 97.741 155.039 L 98.011 177.157 L 139.228 136.683 L 180.444 96.209 L 150.228 66.555 C 133.608 50.244 114.949 31.966 108.761 25.937 L 97.511 14.974 L 97.511 37.491" stroke="none" fill="#787fd8" fill-rule="evenodd"></path>
</svg>