<svg xmlns="http://www.w3.org/2000/svg" version="1.0" viewBox="0 0 695 218"><path d="M17.5 5.9c-4.8 2.2-7.9 5.4-10 10.3-1.3 3.3-1.5 14.4-1.5 90 0 59.9.3 87.5 1.1 90.3 1.5 5.4 7.4 10.9 13.2 12.4 6.1 1.5 122.5 1.6 128 0 4.7-1.3 10.6-6.3 12.3-10.6 1.1-2.6 1.4-19.7 1.4-91.9V17.7l-2.6-4.5c-1.9-3.3-3.9-5-7.7-6.8L146.5 4H84c-58.6 0-62.7.2-66.5 1.9zM147 15.3c1.4.7 3.3 2.8 4.2 4.7 1.7 3.2 1.8 9.4 1.8 86 0 54.2-.4 83.8-1.1 86.3-2 7.5.7 7.2-64.4 7.5-31.9.2-60 0-62.4-.3-2.8-.4-5.2-1.6-6.7-3.2l-2.4-2.6v-85.8c0-65.6.3-86.4 1.2-88.5 2.5-5.3 2.4-5.3 67.3-5.3 46-.1 60.6.2 62.5 1.2z"/><path d="M43.8 94.1c-2.1 1.2-2.4 5.9-.6 7.7 1.7 1.7 44.9 1.7 46.6 0 1.9-1.9 1.5-6.6-.7-7.8-2.6-1.3-43-1.3-45.3.1zM42 125c-2.4 2.4-2.5 3.9-.6 6.6 1.4 1.8 3.2 1.9 41.6 2.2 43.9.3 45 .2 45-5.3 0-5.4-.9-5.5-44.2-5.5-38.5 0-39.9.1-41.8 2zm-.4 31.6c-2.1 2.1-2 4.7.2 6.7 1.7 1.5 6.1 1.7 42.5 1.7 43.9 0 43.7 0 43.7-5.4 0-4.6-.1-4.6-43.6-4.6-36.2 0-41.5.2-42.8 1.6zM182 107v102h35V40.9l25.3.3c24.8.3 25.3.3 30.7 2.9 8.5 4.1 14.5 10 18.5 18.4 3.2 6.5 3.6 8.3 3.6 15.3 0 13.1-5.8 24.3-16.4 31.6-7 4.8-14 6.6-26.2 6.6h-10l-5.9 14.8c-3.3 8.1-6.6 16.2-7.4 18.1l-1.3 3.4 20.8-.6c22.5-.6 28-1.5 39.2-6.8 13.4-6.2 23.3-15 31.8-28.1 5.5-8.5 8-14.7 9.9-24.6 6.2-32.6-9.8-64.5-39.9-79.2C274 5.4 271 5 222.9 5H182v102zm166-.1V209h35V41h29.3c26.5 0 29.9.2 36.7 2.1 19.3 5.3 34 17.3 42.1 34.4 5.2 10.8 7 18.3 7 29 .1 11.8-1.3 17.9-5.9 27.8-7.1 15-16.2 24.6-29.7 31.2-11.4 5.7-20.5 7.5-37.5 7.5h-14.6l-6.6 16.2c-3.7 9-7 17.1-7.4 18.2-.7 1.8.2 1.8 24.2 1.3 16.7-.3 27.4-1 32.4-2 19.2-4 36.6-13.5 50.9-27.8 16.8-16.8 26.6-37.2 29.3-60.7 5.1-46.5-21.7-90.1-65.9-106.7-14.8-5.6-16-5.7-69.5-6.2L348 4.9v102zm203 .1v102h35l.2-41.8.3-41.7 42.3-.3c39.7-.2 42.3-.3 41.8-2-.3-.9-1.9-7.3-3.6-14.2-1.7-6.9-3.5-14.2-4.1-16.2l-1-3.8-37.7-.2-37.7-.3v-47l50.8-.3L688 41V5H551v102z"/></svg>