<svg xmlns="http://www.w3.org/2000/svg" version="1.0" viewBox="0 0 900 212"><path d="M13.8 11.1c-1 .5-2.2 2.6-2.8 4.7-1.4 5.1-1.4 150.6 0 153.3.6 1 1.6 1.9 2.3 1.9.7 0 26.1-24.9 56.5-55.3C116.5 68.9 125 60 125 57.6c0-2.3-3.5-6.2-21.1-23.4-11.6-11.4-22.7-21.5-24.7-22.4-3.2-1.5-7.4-1.7-33.7-1.7-18.1 0-30.7.4-31.7 1zm119.1 1.3c-1 2-.8 2.9.9 5.3 1.1 1.5 14.8 15.5 30.4 31C182.5 67 193.3 77 194.6 77c4.3 0 4.4-1 4.4-32.2V14.9l-2.5-2.4-2.4-2.5H134l-1.1 2.4zM211 25.8v16.1l44.3.3c42.9.3 44.3.4 48.9 2.5 11.9 5.5 17.3 14.9 16.6 28.4-.7 11.3-5.2 19.1-14.4 24.5-8 4.7-14.7 5.4-56.6 5.4H211v96h36v-67l21.3.2 21.2.3 17.5 33 17.5 33 20.3.3c11.1.1 20.2 0 20.2-.3 0-.2-9.7-16.5-21.5-36.1-11.8-19.5-21.5-35.7-21.5-35.9 0-.2 2.1-1.6 4.8-3.3 17-10.5 28.2-31.9 28.2-54.2 0-24.1-10.2-41.8-29.2-50.8-15-7.2-17.5-7.5-69-8L211 9.8v16zm200.7 78.1c-18.5 51.6-33.7 94.2-33.7 94.5 0 .3 8.7.6 19.3.6h19.2l25.1-74.8c17.1-51.1 25.5-74.8 26.6-75 1.6-.3.8-2.3 21.6 55.8 6.6 18.4 16.9 47.1 22.8 63.7l10.8 30.3h20.8c11.4 0 20.8-.2 20.8-.5s-7.5-19.6-16.6-42.8c-9.2-23.2-18.4-46.7-20.5-52.2-2.1-5.5-11.2-28.7-20.2-51.5l-16.3-41.5-23-.3-23.1-.2-33.6 93.9zm164.3-93c0 .5 28.7 42.9 63.9 94.3l63.8 93.3 18.2.3 18.1.2V10h-35v65.7c0 52.6-.3 65.5-1.2 64.5-.7-.7-21.6-30.2-46.3-65.5l-45.1-64.2-18.2-.3c-10.7-.1-18.2.1-18.2.7zm174 16.6V45h140V10H750v17.5zM576 127.8V199h36v-91.6L594.9 83c-9.4-13.5-17.5-24.9-18-25.5-.5-.5-.9 28-.9 70.3zM147.5 83c-2.7 1-108.4 107.7-109.8 110.7-.8 1.9-.7 2.7.7 4.1 1.6 1.6 6.9 1.7 76.9 1.3 43.1-.2 76.3-.8 77.7-1.3 6.2-2.3 6-1.1 6-36.3v-32.3l-4.7-5.3c-13.2-15.2-39.2-40.2-42.8-41.2-1.1-.3-2.9-.2-4 .3zM750 104.5V121h140V88H750v16.5zm0 77V199h140v-35H750v17.5z"/></svg>