<svg version="1.0" viewBox="0 0 900 212" xmlns="http://www.w3.org/2000/svg">
  <defs>
    <linearGradient gradientUnits="userSpaceOnUse" x1="107.992" y1="11.217" x2="107.992" y2="200.515" id="gradient-0" gradientTransform="matrix(1, 0, 0, 1, -7.982262, 0)">
      <stop offset="0" style="stop-color: rgb(14, 65, 111);"></stop>
      <stop offset="1" style="stop-color: rgb(0% 0% 0%)"></stop>
    </linearGradient>
    <linearGradient gradientUnits="userSpaceOnUse" x1="550.5" y1="9.8" x2="550.5" y2="199" id="gradient-1">
      <stop offset="0" style="stop-color: rgb(14, 65, 111);"></stop>
      <stop offset="1" style="stop-color: rgb(0% 0% 0%)"></stop>
    </linearGradient>
  </defs>
  <path d="M 211 25.8 L 211 41.9 L 255.3 42.2 C 298.2 42.5 299.6 42.6 304.2 44.7 C 316.1 50.2 321.5 59.6 320.8 73.1 C 320.1 84.4 315.6 92.2 306.4 97.6 C 298.4 102.3 291.7 103 249.8 103 L 211 103 L 211 199 L 247 199 L 247 132 L 268.3 132.2 L 289.5 132.5 L 307 165.5 L 324.5 198.5 L 344.8 198.8 C 355.9 198.9 365 198.8 365 198.5 C 365 198.3 355.3 182 343.5 162.4 C 331.7 142.9 322 126.7 322 126.5 C 322 126.3 324.1 124.9 326.8 123.2 C 343.8 112.7 355 91.3 355 69 C 355 44.9 344.8 27.2 325.8 18.2 C 310.8 11 308.3 10.7 256.8 10.2 L 211 9.8 L 211 25.8 Z M 411.7 103.9 C 393.2 155.5 378 198.1 378 198.4 C 378 198.7 386.7 199 397.3 199 L 416.5 199 L 441.6 124.2 C 458.7 73.1 467.1 49.4 468.2 49.2 C 469.8 48.9 469 46.9 489.8 105 C 496.4 123.4 506.7 152.1 512.6 168.7 L 523.4 199 L 544.2 199 C 555.6 199 565 198.8 565 198.5 C 565 198.2 557.5 178.9 548.4 155.7 C 539.2 132.5 530 109 527.9 103.5 C 525.8 98 516.7 74.8 507.7 52 L 491.4 10.5 L 468.4 10.2 L 445.3 10 L 411.7 103.9 Z M 576 10.9 C 576 11.4 604.7 53.8 639.9 105.2 L 703.7 198.5 L 721.9 198.8 L 740 199 L 740 10 L 705 10 L 705 75.7 C 705 128.3 704.7 141.2 703.8 140.2 C 703.1 139.5 682.2 110 657.5 74.7 L 612.4 10.5 L 594.2 10.2 C 583.5 10.1 576 10.3 576 10.9 Z M 750 27.5 L 750 45 L 890 45 L 890 10 L 750 10 L 750 27.5 Z M 576 127.8 L 576 199 L 612 199 L 612 107.4 L 594.9 83 C 585.5 69.5 577.4 58.1 576.9 57.5 C 576.4 57 576 85.5 576 127.8 Z M 750 104.5 L 750 121 L 890 121 L 890 88 L 750 88 L 750 104.5 Z M 750 181.5 L 750 199 L 890 199 L 890 164 L 750 164 L 750 181.5 Z" style="fill: url(#gradient-1);"></path>
  <path d="M 9.335 12.317 C 8.335 12.817 7.135 14.917 6.535 17.017 C 5.135 22.117 5.135 167.617 6.535 170.317 C 7.135 171.317 8.135 172.217 8.835 172.217 C 9.535 172.217 34.935 147.317 65.335 116.917 C 112.035 70.117 120.535 61.217 120.535 58.817 C 120.535 56.517 117.035 52.617 99.435 35.417 C 87.835 24.017 76.735 13.917 74.735 13.017 C 71.535 11.517 67.335 11.317 41.035 11.317 C 22.935 11.317 10.335 11.717 9.335 12.317 Z M 128.435 13.617 C 127.435 15.617 127.635 16.517 129.335 18.917 C 130.435 20.417 144.135 34.417 159.735 49.917 C 178.035 68.217 188.835 78.217 190.135 78.217 C 194.435 78.217 194.535 77.217 194.535 46.017 L 194.535 16.117 L 192.035 13.717 L 189.635 11.217 L 129.535 11.217 L 128.435 13.617 Z M 143.035 84.217 C 140.335 85.217 34.635 191.917 33.235 194.917 C 32.435 196.817 32.535 197.617 33.935 199.017 C 35.535 200.617 40.835 200.717 110.835 200.317 C 153.935 200.117 187.135 199.517 188.535 199.017 C 194.735 196.717 194.535 197.917 194.535 162.717 L 194.535 130.417 L 189.835 125.117 C 176.635 109.917 150.635 84.917 147.035 83.917 C 145.935 83.617 144.135 83.717 143.035 84.217 Z" style="fill: url(#gradient-0);"></path>
</svg>