<svg version="1.0" viewBox="0 0 900 212" xmlns="http://www.w3.org/2000/svg">
  <defs>
    <linearGradient gradientUnits="userSpaceOnUse" x1="107.992" y1="11.217" x2="107.992" y2="200.515" id="gradient-0">
      <stop offset="0" style="stop-color: rgb(14, 65, 111);"></stop>
      <stop offset="1" style="stop-color: rgb(0% 0% 0%)"></stop>
    </linearGradient>
    <linearGradient gradientUnits="userSpaceOnUse" x1="550.5" y1="9.8" x2="550.5" y2="199" id="gradient-1">
      <stop offset="0" style="stop-color: rgb(14, 65, 111);"></stop>
      <stop offset="1" style="stop-color: rgb(0% 0% 0%)"></stop>
    </linearGradient>
  </defs>
  <path d="M 211 25.8 L 211 41.9 L 255.3 42.2 C 298.2 42.5 299.6 42.6 304.2 44.7 C 316.1 50.2 321.5 59.6 320.8 73.1 C 320.1 84.4 315.6 92.2 306.4 97.6 C 298.4 102.3 291.7 103 249.8 103 L 211 103 L 211 199 L 247 199 L 247 132 L 268.3 132.2 L 289.5 132.5 L 307 165.5 L 324.5 198.5 L 344.8 198.8 C 355.9 198.9 365 198.8 365 198.5 C 365 198.3 355.3 182 343.5 162.4 C 331.7 142.9 322 126.7 322 126.5 C 322 126.3 324.1 124.9 326.8 123.2 C 343.8 112.7 355 91.3 355 69 C 355 44.9 344.8 27.2 325.8 18.2 C 310.8 11 308.3 10.7 256.8 10.2 L 211 9.8 L 211 25.8 Z M 411.7 103.9 C 393.2 155.5 378 198.1 378 198.4 C 378 198.7 386.7 199 397.3 199 L 416.5 199 L 441.6 124.2 C 458.7 73.1 467.1 49.4 468.2 49.2 C 469.8 48.9 469 46.9 489.8 105 C 496.4 123.4 506.7 152.1 512.6 168.7 L 523.4 199 L 544.2 199 C 555.6 199 565 198.8 565 198.5 C 565 198.2 557.5 178.9 548.4 155.7 C 539.2 132.5 530 109 527.9 103.5 C 525.8 98 516.7 74.8 507.7 52 L 491.4 10.5 L 468.4 10.2 L 445.3 10 L 411.7 103.9 Z M 576 10.9 C 576 11.4 604.7 53.8 639.9 105.2 L 703.7 198.5 L 721.9 198.8 L 740 199 L 740 10 L 705 10 L 705 75.7 C 705 128.3 704.7 141.2 703.8 140.2 C 703.1 139.5 682.2 110 657.5 74.7 L 612.4 10.5 L 594.2 10.2 C 583.5 10.1 576 10.3 576 10.9 Z M 750 27.5 L 750 45 L 890 45 L 890 10 L 750 10 L 750 27.5 Z M 576 127.8 L 576 199 L 612 199 L 612 107.4 L 594.9 83 C 585.5 69.5 577.4 58.1 576.9 57.5 C 576.4 57 576 85.5 576 127.8 Z M 750 104.5 L 750 121 L 890 121 L 890 88 L 750 88 L 750 104.5 Z M 750 181.5 L 750 199 L 890 199 L 890 164 L 750 164 L 750 181.5 Z" style="fill: url(#gradient-1);"></path>
  <path d="M 17.317 12.317 C 16.317 12.817 15.117 14.917 14.517 17.017 C 13.117 22.117 13.117 167.617 14.517 170.317 C 15.117 171.317 16.117 172.217 16.817 172.217 C 17.517 172.217 42.917 147.317 73.317 116.917 C 120.017 70.117 128.517 61.217 128.517 58.817 C 128.517 56.517 125.017 52.617 107.417 35.417 C 95.817 24.017 84.717 13.917 82.717 13.017 C 79.517 11.517 75.317 11.317 49.017 11.317 C 30.917 11.317 18.317 11.717 17.317 12.317 Z M 136.417 13.617 C 135.417 15.617 135.617 16.517 137.317 18.917 C 138.417 20.417 152.117 34.417 167.717 49.917 C 186.017 68.217 196.817 78.217 198.117 78.217 C 202.417 78.217 202.517 77.217 202.517 46.017 L 202.517 16.117 L 200.017 13.717 L 197.617 11.217 L 137.517 11.217 L 136.417 13.617 Z M 151.017 84.217 C 148.317 85.217 42.617 191.917 41.217 194.917 C 40.417 196.817 40.517 197.617 41.917 199.017 C 43.517 200.617 48.817 200.717 118.817 200.317 C 161.917 200.117 195.117 199.517 196.517 199.017 C 202.717 196.717 202.517 197.917 202.517 162.717 L 202.517 130.417 L 197.817 125.117 C 184.617 109.917 158.617 84.917 155.017 83.917 C 153.917 83.617 152.117 83.717 151.017 84.217 Z" style="fill: url(#gradient-0);"></path>
</svg>