<svg xmlns="http://www.w3.org/2000/svg" version="1.0" viewBox="0 0 499 499"><path d="M196.7 183.6c-.4.4-.7 4.4-.7 8.8-.1 17.5-2.4 21-14 22.2l-7.1.7.3 7.1.3 7.1 9.2.3 9.2.3.3 30.2c.3 28.2.4 30.5 2.4 34.7 4.9 10.5 12.4 14.2 28 13.8l9.9-.3.3-4c.2-2.1.1-5.4-.3-7.2l-.6-3.3h-6.5c-6.1 0-6.8-.2-9.9-3.3-4.4-4.4-4.7-6.8-4.3-36.2l.3-24 9.4-.3c5.2-.1 10.1-.8 10.8-1.4 1.5-1.2 1.8-10.5.4-12.7-.8-1.3-5.5-1.8-17.8-2l-3.2-.1-.3-15.3-.3-15.2-7.5-.3c-4.2-.1-7.9 0-8.3.4zm229.9 30.9c-7.5 2.1-13.7 6.5-17.1 11.9-2.7 4.5-3 5.7-3 13.6 0 7.8.3 9.1 2.8 12.9 3.4 5.1 9.8 9.3 18.1 12 3.4 1.1 10.1 3.2 15.1 4.8 11.2 3.5 16.5 7.9 16.5 13.7 0 2-.6 4.9-1.4 6.5-3.4 6.4-18.7 8.8-27.3 4.3-3.9-2.1-9.3-7.7-9.3-9.9 0-.5-.6-1.7-1.3-2.7-1.3-1.7-1.6-1.7-8.5.3-3.9 1.2-7.4 2.6-7.8 3.2-.3.6.8 4 2.6 7.5 5.2 10.7 15.9 16.9 31 18.1 14.9 1.1 27.5-2.9 34.4-10.8 4.3-5.1 5.6-9.2 5.6-17.8 0-15.5-7.9-22.2-35-29.6-11.8-3.2-15-5.1-17.3-9.8-1.6-3.1-1.7-4.2-.7-7.2.6-1.9 2.6-4.5 4.3-5.7 2.7-2 4.5-2.3 11.9-2.3 10.9 0 13 1.3 19.4 12.1.9 1.6 1.6 1.6 6.9.6 8.4-1.7 9.2-2.8 6.5-8.8-2.9-6.7-8.1-11.7-15.4-15-5.1-2.3-7.7-2.8-16.1-3-6.4-.2-11.7.2-14.9 1.1zm-112.9.2c-1.5.2-3.2 1.3-3.7 2.3-.9 1.6-19.1 52.3-22.3 61.7-.6 1.8-1.3 3.3-1.7 3.3-.6 0-2.7-6.3-16.6-49.3l-5.8-17.7h-18.8l.5 2.7c.3 2.3 28 84 30.2 89.6.6 1.5 1.9 1.7 9.4 1.5l8.6-.3L299 293c3.1-8.5 8.5-23.7 12-33.7 3.6-10.1 6.7-18.3 7-18.3.6 0 9.9 25.9 19.7 54.7l4.5 13.3h17.5l8.3-23.8c4.5-13 11.8-34 16.2-46.5 4.4-12.5 7.7-23.1 7.4-23.5-1-1-14.7-1.1-17.3-.1-1.8.7-3.9 6.1-13 33.8-5.9 18.2-11.1 33.1-11.4 33.1-.4 0-1.4-1.9-2.2-4.3-16.7-46.9-21.9-61.3-22.5-61.9-1-1-8.1-1.7-11.5-1.1zM28.1 233.2c-7.2 7.3-13.1 13.7-13.1 14.3 0 .6 6 7 13.3 14.3 14 13.9 16.5 15.3 20 11.4 3.6-3.9 2.3-6.9-7.2-16.6l-9-9.1 9-9.2c6.6-6.8 8.9-9.9 8.9-11.8 0-4.5-1.7-6.5-5.4-6.5-3 0-4.9 1.5-16.5 13.2zm51.7-11.5c-2.6 3-19.8 43.9-19.8 47.1 0 5 5.3 7.9 9.3 4.9 2.5-1.8 20.7-44.2 20.7-48.1 0-1.7-.5-3.7-1.2-4.4-1.8-1.8-7.3-1.5-9 .5zm20.6.8c-2.4 3.7-.8 6.7 8.6 16 4.4 4.4 8 8.4 8 8.9s-3.7 4.7-8.2 9.3c-4.6 4.6-8.7 9.1-9.1 9.9-1.8 3.3 1.8 8.4 6 8.4 2 0 5.7-3.1 16-13.2 7.3-7.3 13.3-13.7 13.3-14.3 0-.6-6-7-13.3-14.3-11.5-11.4-13.7-13.2-16.4-13.2-2.4 0-3.7.7-4.9 2.5z"/></svg>